<svg id="Layer_1" data-name="Layer 1" xmlns="http://www.w3.org/2000/svg" xmlns:xlink="http://www.w3.org/1999/xlink" viewBox="0 0 120 120"><defs><style>.cls-1{fill:url(#linear-gradient);}.cls-2{fill:url(#linear-gradient-2);}</style><linearGradient id="linear-gradient" x1="24.65" y1="60" x2="95.35" y2="60" gradientUnits="userSpaceOnUse"><stop offset="0" stop-color="#621ee6"/><stop offset="0.07" stop-color="#5a1ce8"/><stop offset="0.49" stop-color="#290df4"/><stop offset="0.82" stop-color="#0b03fc"/><stop offset="1" stop-color="blue"/></linearGradient><linearGradient id="linear-gradient-2" x1="1.5" y1="60" x2="118.5" y2="60" gradientUnits="userSpaceOnUse"><stop offset="0.33" stop-color="#621ee6"/><stop offset="0.51" stop-color="#5f1de7"/><stop offset="0.63" stop-color="#561ae9"/><stop offset="0.75" stop-color="#4615ed"/><stop offset="0.85" stop-color="#2f0ef3"/><stop offset="0.95" stop-color="#1206fa"/><stop offset="1" stop-color="blue"/></linearGradient></defs><title>BaoThu</title><path class="cls-1" d="M60,94.83H26.54c-1.62,0-1.87-.25-1.87-1.89q0-18.8,0-37.59a2.26,2.26,0,0,1,.91-1.92Q42.27,39.6,58.94,25.74c.91-.76,1.21-.76,2.12,0Q77.75,39.59,94.44,53.43a2.27,2.27,0,0,1,.91,1.93q0,18.85,0,37.69c0,1.51-.28,1.78-1.78,1.78Zm0-67.11-32.51,27L60,81.69l32.51-27ZM28.85,92.56h62.3L70.75,75.63c-3.31,2.74-6.54,5.4-9.75,8.1a1.32,1.32,0,0,1-2,0c-1.56-1.35-3.17-2.65-4.76-4l-5-4.13ZM27,57.13V91.28L47.53,74.19Zm66.1,0L72.47,74.2,93.05,91.28Z"/><path class="cls-2" d="M116.84,26.92a4.14,4.14,0,0,0-4.27-.88,63.38,63.38,0,0,0-18.51-14.9A59.81,59.81,0,0,0,72.81,4.35c-1.65-.2-3.31-.38-5-.57H61.15c-1.69.19-3.37.37-5.06.58A57.76,57.76,0,0,0,37.31,9.94c-18.88,9.4-30.63,24.79-35,46.18a40.67,40.67,0,0,0-.59,6.27,8.28,8.28,0,0,1-.18,1v6.69c.19,1.65.37,3.3.57,4.94a57.84,57.84,0,0,0,5.56,18.8A64.36,64.36,0,0,0,25.17,116a.86.86,0,0,0,1.14-.07l.62-.62a.78.78,0,0,0-.07-1.17,60.52,60.52,0,1,1,83.65-86.71,4.43,4.43,0,0,0-.91,3.75,4.5,4.5,0,0,0,8.85-1.65A4.33,4.33,0,0,0,116.84,26.92Z"/></svg>