<svg id="Layer_1" data-name="Layer 1" xmlns="http://www.w3.org/2000/svg" xmlns:xlink="http://www.w3.org/1999/xlink" viewBox="0 0 120 120"><defs><linearGradient id="linear-gradient" x1="21.99" y1="54.75" x2="89.61" y2="54.75" gradientTransform="matrix(1, 0, 0, -1, 0, 122)" gradientUnits="userSpaceOnUse"><stop offset="0" stop-color="#621ee6"/><stop offset="0.07" stop-color="#5a1ce8"/><stop offset="0.49" stop-color="#290df4"/><stop offset="0.82" stop-color="#0b03fc"/><stop offset="1" stop-color="blue"/></linearGradient><linearGradient id="linear-gradient-2" x1="32.46" y1="65.21" x2="100.01" y2="65.21" xlink:href="#linear-gradient"/><linearGradient id="linear-gradient-3" x1="1.54" y1="62.02" x2="118.53" y2="62.02" gradientTransform="matrix(1, 0, 0, -1, 0, 122)" gradientUnits="userSpaceOnUse"><stop offset="0.33" stop-color="#621ee6"/><stop offset="0.51" stop-color="#5f1de7"/><stop offset="0.63" stop-color="#561ae9"/><stop offset="0.75" stop-color="#4615ed"/><stop offset="0.85" stop-color="#2f0ef3"/><stop offset="0.95" stop-color="#1206fa"/><stop offset="1" stop-color="blue"/></linearGradient></defs><title>bb</title><path d="M55.8,91.91H30a7.77,7.77,0,0,1-8-7.53V50.76a7.8,7.8,0,0,1,7.37-8.21,5.89,5.89,0,0,1,.84,0H81.47a7.77,7.77,0,0,1,8.13,7.39c0,.25,0,.49,0,.73V83.74A7.8,7.8,0,0,1,82.23,92a5.89,5.89,0,0,1-.84,0ZM41.51,79.05h6.34a2.49,2.49,0,0,0,2.35-1.31,3,3,0,0,0-1-4.13l0,0a20.8,20.8,0,0,0-2.1-1.08c-.88-.42-1.79-.76-2.65-1.22s-.81-1.18-.26-1.91c.69-.92,1.21-2,1.8-3a4.09,4.09,0,0,1,.6-.89c.67-.64,1.09-1.94.53-2.58a2.7,2.7,0,0,1-.44-2,10.42,10.42,0,0,0-.13-1.37c-.34-2.41-3.2-4.59-5.57-4.05-3.32.76-4.48,2.18-4.54,5.1v1.14a1,1,0,0,1-.16.58c-.74.89-.94,1.92-.2,2.69a10.28,10.28,0,0,1,1.4,2.48A9.9,9.9,0,0,0,38.8,69.4,1.14,1.14,0,0,1,39,71a1.17,1.17,0,0,1-.35.28q-.6.35-1.23.63c-1.24.59-2.52,1.12-3.71,1.79A2.74,2.74,0,0,0,32.51,77a2.56,2.56,0,0,0,2.75,2ZM68.8,68.51h9.09c1,0,1.31-.35,1.3-1.31s-.34-1.29-1.32-1.29H59.69c-.9,0-1.28.37-1.28,1.27s.37,1.33,1.31,1.33Zm0,7.8h9.09c1,0,1.32-.33,1.32-1.29s-.33-1.31-1.3-1.31H59.71c-.93,0-1.32.41-1.31,1.34s.38,1.26,1.29,1.26Zm0-15.6H78c.9,0,1.23-.37,1.23-1.3s-.34-1.29-1.23-1.29H59.78c-1,0-1.36.33-1.38,1.26s.37,1.34,1.38,1.34Z" fill="url(#linear-gradient)"/><path d="M92.22,81.51V76.38c2-.51,2.57-1.25,2.58-3.34V40.22a2.62,2.62,0,0,0-2.29-2.91,3.21,3.21,0,0,0-.62,0H40.62c-1.85,0-2.63.66-3.09,2.55H32.46a7.5,7.5,0,0,1,6.29-7.57,52.71,52.71,0,0,1,6.65-.18H91.87A7.78,7.78,0,0,1,100,39.52c0,.24,0,.47,0,.71V73.62a7.79,7.79,0,0,1-6.74,7.82A10.23,10.23,0,0,1,92.22,81.51Z" fill="url(#linear-gradient-2)"/><path d="M116.84,26.92a4.14,4.14,0,0,0-4.27-.88,63.56,63.56,0,0,0-18.51-14.9A59.66,59.66,0,0,0,72.81,4.35c-1.65-.2-3.31-.38-5-.57H61.15c-1.69.19-3.37.37-5.06.58A57.77,57.77,0,0,0,37.31,9.94c-18.88,9.4-30.63,24.79-35,46.18a40,40,0,0,0-.59,6.27,8.37,8.37,0,0,1-.18,1v6.69c.19,1.65.37,3.3.57,4.94a57.78,57.78,0,0,0,5.56,18.8A64.45,64.45,0,0,0,25.17,116a.86.86,0,0,0,1.14-.07l.62-.62a.78.78,0,0,0,0-1.1l-.08-.07a60.52,60.52,0,1,1,83.65-86.71,4.42,4.42,0,0,0-.91,3.75,4.5,4.5,0,0,0,8.85-1.65A4.3,4.3,0,0,0,116.84,26.92Z" fill="url(#linear-gradient-3)"/></svg>