<svg id="Layer_1" data-name="Layer 1" xmlns="http://www.w3.org/2000/svg" xmlns:xlink="http://www.w3.org/1999/xlink" viewBox="0 0 120 120"><defs><linearGradient id="linear-gradient" x1="34.03" y1="37.62" x2="87.49" y2="91.08" gradientTransform="matrix(1, 0, 0, -1, 0, 122)" gradientUnits="userSpaceOnUse"><stop offset="0.33" stop-color="#621ee6"/><stop offset="0.51" stop-color="#5f1de7"/><stop offset="0.63" stop-color="#561ae9"/><stop offset="0.75" stop-color="#4615ed"/><stop offset="0.85" stop-color="#2f0ef3"/><stop offset="0.95" stop-color="#1206fa"/><stop offset="1" stop-color="blue"/></linearGradient><linearGradient id="linear-gradient-2" x1="1.1" y1="62" x2="118.9" y2="62" xlink:href="#linear-gradient"/></defs><title>Bill_Icon</title><path d="M58.41,95.79c-1.75,1.79-3.35,3.43-5,5-1.06,1.07-1.85,1-2.93,0q-1.29-1.2-2.46-2.52a3,3,0,0,1-.74-1.77V44.62a3.94,3.94,0,0,0-7.86-.56,2.62,2.62,0,0,0,0,.56V61.79c0,3.46.07,6.93,0,10.39a30.21,30.21,0,0,1-.75,4.23h2.46a1.59,1.59,0,1,1,.45,3.15,1.67,1.67,0,0,1-.5,0H32.42a7,7,0,0,1-7.09-6.91V20.55c0-1.68.47-2.16,2.13-2.16h46.4c1.47,0,2,.53,2,2V37.23H87.67a7,7,0,0,1,7,7V96.29a2.64,2.64,0,0,1-.87,2.1c-.88.82-1.7,1.7-2.56,2.54a1.58,1.58,0,0,1-2.2.39,1.45,1.45,0,0,1-.39-.39c-1.65-1.67-3.28-3.35-5-5.11l-4.8,4.83c-1.26,1.27-1.89,1.27-3.16,0l-4.83-4.79c-.82.87-1.65,1.76-2.5,2.63s-1.65,1.67-2.5,2.48a1.58,1.58,0,0,1-2.21.27,1.66,1.66,0,0,1-.26-.27q-2-2-4-4A6.22,6.22,0,0,1,58.41,95.79ZM28.5,21.62V72.46a3.91,3.91,0,0,0,3.17,3.91A3.8,3.8,0,0,0,36,74a6.53,6.53,0,0,0,.31-2.24V44.91c0-4.65,3-7.59,7.58-7.58H72.67V21.62Zm42.68,46.6H85.52A1.43,1.43,0,0,0,87,67.12a2.26,2.26,0,0,0-.32-1.75,3,3,0,0,0-1.91-.59h-27a10.84,10.84,0,0,0-1.14,0A1.81,1.81,0,0,0,55,66.59a1.74,1.74,0,0,0,1.75,1.63H71.18Zm0-19.18H57.24c-1.4,0-2.22.62-2.23,1.68s.84,1.74,2.18,1.79H84.47a6.24,6.24,0,0,0,1.14-.07,1.71,1.71,0,0,0,1.59-1.82v0c-.08-1-.73-1.54-1.88-1.55Zm4.45,24.32h-9.8a1.73,1.73,0,1,0-.26,3.45H85.35a2.51,2.51,0,0,0,1.52-.69A1.45,1.45,0,0,0,87,74.31a1.79,1.79,0,0,0-1.75-1Zm-8.37-16H56.94C55.71,57.36,55,58,55,59s.73,1.68,1.93,1.68h20.5c1.2,0,1.87-.64,1.85-1.72s-.63-1.6-1.85-1.61Zm4.34,26.9h6a1.5,1.5,0,0,0,1.69-1.32,1.36,1.36,0,0,0,0-.35,1.59,1.59,0,0,0-1.5-1.66H65.64A1.58,1.58,0,0,0,64,82.43a1.41,1.41,0,0,0,0,.2,1.52,1.52,0,0,0,1.41,1.64,1.22,1.22,0,0,0,.33,0Zm-13.54-7.4h1.32a1.7,1.7,0,0,0,1.76-1.64v0a1.64,1.64,0,0,0-1.5-1.77H56.77A1.75,1.75,0,0,0,55,75.05a1.87,1.87,0,0,0,1.83,1.77A10.11,10.11,0,0,0,58.06,76.86Zm0,7.4h1.49a1.5,1.5,0,0,0,1.57-1.43v-.1A1.57,1.57,0,0,0,59.78,81h-.09c-1,0-2.11,0-3.16,0A1.68,1.68,0,0,0,55,82.68a1.63,1.63,0,0,0,1.66,1.58h1.4Z" fill="url(#linear-gradient)"/><circle cx="60" cy="60" r="57.9" fill="none" stroke-miterlimit="10" stroke-width="2" stroke="url(#linear-gradient-2)"/></svg>