<?xml version="1.0" encoding="utf-8"?>
<!-- Generator: Adobe Illustrator 24.0.0, SVG Export Plug-In . SVG Version: 6.00 Build 0)  -->
<svg version="1.1" id="Layer_1" xmlns="http://www.w3.org/2000/svg" xmlns:xlink="http://www.w3.org/1999/xlink" x="0px" y="0px"
	 viewBox="0 0 120 120" style="enable-background:new 0 0 120 120;" xml:space="preserve">
<style type="text/css">
	.st0{fill:url(#SVGID_1_);}
	.st1{fill:none;stroke:url(#SVGID_2_);stroke-width:2;stroke-miterlimit:10;}
</style>
<title>bill</title>
<linearGradient id="SVGID_1_" gradientUnits="userSpaceOnUse" x1="34.0292" y1="37.6202" x2="87.4885" y2="91.0794" gradientTransform="matrix(1 0 0 -1 0 122)">
	<stop  offset="0.33" style="stop-color:#621EE6"/>
	<stop  offset="0.51" style="stop-color:#5F1DE7"/>
	<stop  offset="0.63" style="stop-color:#561AE9"/>
	<stop  offset="0.75" style="stop-color:#4615ED"/>
	<stop  offset="0.85" style="stop-color:#2F0EF3"/>
	<stop  offset="0.95" style="stop-color:#1206FA"/>
	<stop  offset="1" style="stop-color:#0000FF"/>
</linearGradient>
<path class="st0" d="M58.4,95.8c-1.8,1.8-3.3,3.4-5,5c-1.1,1.1-1.8,1-2.9,0c-0.9-0.8-1.7-1.6-2.5-2.5c-0.4-0.5-0.7-1.1-0.7-1.8
	c0-9.2,0-18.4,0-27.6c0-8.1,0-16.2,0-24.3c0.2-2.2-1.5-4.1-3.6-4.2s-4.1,1.5-4.2,3.6c0,0.2,0,0.4,0,0.6c0,5.7,0,11.5,0,17.2
	c0,3.5,0.1,6.9,0,10.4c-0.1,1.4-0.4,2.8-0.8,4.2c0.7,0,1.6,0,2.5,0c0.9-0.1,1.7,0.5,1.8,1.3c0.1,0.9-0.5,1.7-1.3,1.8
	c-0.2,0-0.3,0-0.5,0h-8.7c-3.9,0-7-3-7.1-6.9c0,0,0-0.1,0-0.1c0-8,0-16,0-24c0-9.3,0-18.7,0-28c0-1.7,0.5-2.2,2.1-2.2h46.4
	c1.5,0,2,0.5,2,2c0,5.3,0,10.5,0,15.8v1.1h11.8c3.9,0,7,3.1,7,7c0,0,0,0,0,0.1c0,17.3,0,34.7,0,52c0,0.8-0.3,1.6-0.9,2.1
	c-0.9,0.8-1.7,1.7-2.6,2.5c-0.5,0.7-1.5,0.9-2.2,0.4c-0.2-0.1-0.3-0.2-0.4-0.4c-1.7-1.7-3.3-3.3-5-5.1l-4.8,4.8
	c-1.3,1.3-1.9,1.3-3.2,0l-4.8-4.8c-0.8,0.9-1.7,1.8-2.5,2.6s-1.7,1.7-2.5,2.5c-0.5,0.7-1.5,0.8-2.2,0.3c-0.1-0.1-0.2-0.2-0.3-0.3
	c-1.3-1.3-2.7-2.7-4-4.1C59,96.6,58.8,96.2,58.4,95.8z M28.5,21.6c0,0.3,0,0.6,0,0.8c0,11.8,0,23.7,0,35.5c0,4.8,0,9.7,0,14.5
	c0,1.9,1.3,3.5,3.2,3.9c1.8,0.4,3.7-0.6,4.3-2.4c0.2-0.7,0.3-1.5,0.3-2.2c0-9,0-17.9,0-26.8c0-4.7,3-7.6,7.6-7.6
	c9.3,0,18.7,0,28.1,0c0.2,0,0.4,0,0.7,0V21.6H28.5z M71.2,68.2h10.7c1.2,0,2.5,0,3.7,0c0.7,0,1.3-0.4,1.5-1.1c0.1-0.6,0-1.2-0.3-1.8
	c-0.6-0.4-1.2-0.6-1.9-0.6c-9,0-18,0-27,0c-0.4,0-0.8,0-1.1,0c-0.9,0.1-1.6,0.9-1.6,1.8c0.1,0.9,0.8,1.6,1.8,1.6c0.3,0,0.5,0,0.8,0
	H71.2z M71.2,49H57.2c-1.4,0-2.2,0.6-2.2,1.7s0.8,1.7,2.2,1.8h27.3c0.4,0,0.8,0,1.1-0.1c0.9-0.1,1.7-0.9,1.6-1.8c0,0,0,0,0,0
	c-0.1-1-0.7-1.5-1.9-1.5L71.2,49z M75.6,73.4h-9.8C64.9,73.3,64,74,64,75c-0.1,1,0.6,1.8,1.6,1.9c0.1,0,0.2,0,0.3,0
	c6.5,0,13,0,19.5,0c0.6-0.1,1.1-0.3,1.5-0.7c0.5-0.5,0.5-1.3,0.1-1.8c-0.3-0.7-1-1.1-1.8-1L75.6,73.4z M67.3,57.4H56.9
	C55.7,57.4,55,58,55,59s0.7,1.7,1.9,1.7h20.5c1.2,0,1.9-0.6,1.8-1.7s-0.6-1.6-1.8-1.6H67.3z M71.6,84.3c2,0,4,0,6,0
	c0.8,0.1,1.6-0.5,1.7-1.3c0-0.1,0-0.2,0-0.4c0-0.9-0.6-1.6-1.5-1.7c-0.1,0-0.1,0-0.2,0c-4,0-8,0-12,0c-0.9,0-1.6,0.6-1.6,1.5
	c0,0.1,0,0.1,0,0.2c-0.1,0.8,0.6,1.6,1.4,1.6c0.1,0,0.2,0,0.3,0H71.6z M58.1,76.9L58.1,76.9c0.4,0,0.9,0,1.3,0
	c0.9,0,1.7-0.7,1.8-1.6c0,0,0,0,0-0.1c0.1-0.9-0.6-1.7-1.5-1.8c-0.1,0-0.1,0-0.2,0c-0.9,0-1.8,0-2.7,0c-0.9,0-1.7,0.7-1.8,1.7
	c0.1,1,0.9,1.7,1.8,1.8C57.2,76.9,57.6,76.9,58.1,76.9z M58.1,84.3c0.5,0,1,0,1.5,0c0.8,0,1.5-0.6,1.6-1.4c0,0,0-0.1,0-0.1
	c0.1-0.9-0.5-1.7-1.3-1.8c0,0-0.1,0-0.1,0c-1.1-0.1-2.1-0.1-3.2,0C55.6,81,55,81.8,55,82.7c0,0.9,0.8,1.6,1.7,1.6
	C57.1,84.3,57.6,84.3,58.1,84.3L58.1,84.3z"/>
<linearGradient id="SVGID_2_" gradientUnits="userSpaceOnUse" x1="1.1" y1="62" x2="118.9" y2="62" gradientTransform="matrix(1 0 0 -1 0 122)">
	<stop  offset="0.33" style="stop-color:#621EE6"/>
	<stop  offset="0.51" style="stop-color:#5F1DE7"/>
	<stop  offset="0.63" style="stop-color:#561AE9"/>
	<stop  offset="0.75" style="stop-color:#4615ED"/>
	<stop  offset="0.85" style="stop-color:#2F0EF3"/>
	<stop  offset="0.95" style="stop-color:#1206FA"/>
	<stop  offset="1" style="stop-color:#0000FF"/>
</linearGradient>
<circle class="st1" cx="60" cy="60" r="57.9"/>
</svg>
