<svg id="Layer_1" data-name="Layer 1" xmlns="http://www.w3.org/2000/svg" xmlns:xlink="http://www.w3.org/1999/xlink" viewBox="0 0 120 120"><defs><style>.cls-1{fill:url(#linear-gradient);}.cls-2{fill:url(#linear-gradient-2);}.cls-3{fill:url(#linear-gradient-3);}.cls-4{fill:url(#linear-gradient-4);}.cls-5{fill:url(#linear-gradient-5);}.cls-6{fill:url(#linear-gradient-6);}.cls-7{fill:url(#linear-gradient-7);}.cls-8{fill:url(#linear-gradient-8);}</style><linearGradient id="linear-gradient" x1="19.42" y1="67.11" x2="106.5" y2="67.11" gradientUnits="userSpaceOnUse"><stop offset="0" stop-color="#621ee6"/><stop offset="0.07" stop-color="#5a1ce8"/><stop offset="0.49" stop-color="#290df4"/><stop offset="0.82" stop-color="#0b03fc"/><stop offset="1" stop-color="blue"/></linearGradient><linearGradient id="linear-gradient-2" x1="29" y1="59.9" x2="54.16" y2="59.9" xlink:href="#linear-gradient"/><linearGradient id="linear-gradient-3" x1="29" y1="71.32" x2="54.16" y2="71.32" xlink:href="#linear-gradient"/><linearGradient id="linear-gradient-4" x1="29.01" y1="48.51" x2="54.16" y2="48.51" xlink:href="#linear-gradient"/><linearGradient id="linear-gradient-5" x1="71.76" y1="59.9" x2="96.91" y2="59.9" xlink:href="#linear-gradient"/><linearGradient id="linear-gradient-6" x1="71.76" y1="71.32" x2="96.91" y2="71.32" xlink:href="#linear-gradient"/><linearGradient id="linear-gradient-7" x1="71.76" y1="48.51" x2="96.91" y2="48.51" xlink:href="#linear-gradient"/><linearGradient id="linear-gradient-8" x1="1.5" y1="60" x2="118.5" y2="60" gradientUnits="userSpaceOnUse"><stop offset="0.33" stop-color="#621ee6"/><stop offset="0.51" stop-color="#5f1de7"/><stop offset="0.63" stop-color="#561ae9"/><stop offset="0.75" stop-color="#4615ed"/><stop offset="0.85" stop-color="#2f0ef3"/><stop offset="0.95" stop-color="#1206fa"/><stop offset="1" stop-color="blue"/></linearGradient></defs><title>catalogue</title><path class="cls-1" d="M63.08,41.73c3.19-4.68,7.84-5.77,13.19-5.65,8.53.19,17.06,0,25.59.05,3.36,0,4.63,1.26,4.64,4.61q0,22.88,0,45.77c0,3.25-1.29,4.52-4.53,4.52C94,91,86,91.16,78,91a13.08,13.08,0,0,0-10.78,4.47c-1.14,1.29-2.2,3.08-4.4,2.63A6.87,6.87,0,0,1,60.24,97a23,23,0,0,1-2.67-2.6A11,11,0,0,0,49.36,91c-8.41,0-16.81,0-25.22,0-3.5,0-4.72-1.22-4.72-4.71q0-22.7,0-45.39c0-3.6,1.2-4.8,4.82-4.8h25.4C56.78,36.13,58.11,36.67,63.08,41.73ZM60.84,92.07c0-1.29,0-1.91,0-2.52q0-20.16,0-40.32c0-5.66-3.4-9.06-9.05-9.06q-13.16,0-26.32,0c-.65,0-1.3.08-1.91.12V87c7.54,0,14.95.11,22.34,0C51.33,86.85,56.47,87.34,60.84,92.07Zm4.25-.27c.5-.38.7-.5.86-.65A15.59,15.59,0,0,1,77.36,87c7.59.07,15.18,0,22.77,0h2.28V40.27c-.69,0-1.3-.11-1.9-.11q-13.25,0-26.51,0c-5.51,0-8.91,3.45-8.91,9q0,20.16,0,40.32C65.08,90.15,65.08,90.81,65.08,91.8Z"/><path class="cls-2" d="M41.53,61.91c-3.36,0-6.72,0-10.09,0C30.07,61.93,29,61.48,29,60s1-2.12,2.46-2.11q10.18,0,20.36,0c1.41,0,2.34.6,2.34,2s-1,2-2.36,2C48.37,61.89,44.95,61.91,41.53,61.91Z"/><path class="cls-3" d="M41.71,69.33c3.36,0,6.72,0,10.08,0,1.42,0,2.35.51,2.37,2s-.95,2-2.34,2q-10.17,0-20.35,0C30,73.33,29,72.85,29,71.24s1.06-1.93,2.44-1.91C34.86,69.36,38.29,69.33,41.71,69.33Z"/><path class="cls-4" d="M41.66,46.52c3.36,0,6.72,0,10.08,0,1.39,0,2.37.46,2.42,1.94s-.9,2.06-2.3,2.06H31.33C30,50.51,29,50,29,48.48s1-2,2.39-2C34.82,46.54,38.24,46.52,41.66,46.52Z"/><path class="cls-5" d="M84.33,61.91c-3.36,0-6.72,0-10.08,0-1.47,0-2.52-.48-2.49-2.07s1-2,2.4-2q10.18,0,20.36,0c1.37,0,2.38.5,2.4,2s-1,2.07-2.5,2.06C91.06,61.89,87.69,61.91,84.33,61.91Z"/><path class="cls-6" d="M84.26,73.32c-3.3,0-6.6,0-9.89,0-1.4,0-2.58-.31-2.6-1.95s1.16-2.07,2.66-2.06q9.89.06,19.79,0c1.48,0,2.72.28,2.7,2s-1.32,2-2.76,2C90.85,73.3,87.56,73.32,84.26,73.32Z"/><path class="cls-7" d="M84.25,46.52c3.36,0,6.72,0,10.08,0,1.41,0,2.55.33,2.58,2s-1.09,2-2.51,2q-10.08,0-20.16,0c-1.44,0-2.53-.44-2.48-2.07s1.18-2,2.6-1.94C77.66,46.55,81,46.52,84.25,46.52Z"/><path class="cls-8" d="M116.84,26.92a4.14,4.14,0,0,0-4.27-.88,63.38,63.38,0,0,0-18.51-14.9A59.81,59.81,0,0,0,72.81,4.35c-1.65-.2-3.31-.38-5-.57H61.15c-1.69.19-3.37.37-5.06.58A57.76,57.76,0,0,0,37.31,9.94c-18.88,9.4-30.63,24.79-35,46.18a40.67,40.67,0,0,0-.59,6.27,8.28,8.28,0,0,1-.18,1v6.69c.19,1.65.37,3.3.57,4.94a57.84,57.84,0,0,0,5.56,18.8A64.36,64.36,0,0,0,25.17,116a.86.86,0,0,0,1.14-.07l.62-.62a.78.78,0,0,0-.07-1.17,60.52,60.52,0,1,1,83.65-86.71,4.43,4.43,0,0,0-.91,3.75,4.5,4.5,0,0,0,8.85-1.65A4.33,4.33,0,0,0,116.84,26.92Z"/></svg>