<svg id="Layer_1" data-name="Layer 1" xmlns="http://www.w3.org/2000/svg" xmlns:xlink="http://www.w3.org/1999/xlink" viewBox="0 0 120 120"><defs><style>.cls-1{fill:url(#linear-gradient);}.cls-2{fill:url(#linear-gradient-2);}.cls-3{fill:url(#linear-gradient-3);}</style><linearGradient id="linear-gradient" x1="34.91" y1="107.02" x2="98.72" y2="43.22" gradientUnits="userSpaceOnUse"><stop offset="0" stop-color="#621ee6"/><stop offset="0.31" stop-color="#5f1de7"/><stop offset="0.5" stop-color="#571be9"/><stop offset="0.65" stop-color="#4916ec"/><stop offset="0.78" stop-color="#3510f2"/><stop offset="0.9" stop-color="#1b08f8"/><stop offset="1" stop-color="blue"/></linearGradient><linearGradient id="linear-gradient-2" x1="21.91" y1="82.55" x2="79.37" y2="25.08" xlink:href="#linear-gradient"/><linearGradient id="linear-gradient-3" x1="1.5" y1="60" x2="118.5" y2="60" gradientUnits="userSpaceOnUse"><stop offset="0.33" stop-color="#621ee6"/><stop offset="0.51" stop-color="#5f1de7"/><stop offset="0.63" stop-color="#561ae9"/><stop offset="0.75" stop-color="#4615ed"/><stop offset="0.85" stop-color="#2f0ef3"/><stop offset="0.95" stop-color="#1206fa"/><stop offset="1" stop-color="blue"/></linearGradient></defs><title>folder</title><path class="cls-1" d="M60.82,98.78H29.26c-2.84,0-4.93-1.49-5.47-4.08a7.29,7.29,0,0,1,.09-3.23c2.8-10.64,5.7-21.25,8.49-31.89C33,57,34,54.73,36.24,53.13a8.7,8.7,0,0,1,5.2-1.73h62.84c4,0,6.56,3.18,5.54,7.08C107,69,104.21,79.51,101.4,90c-.19.71-.38,1.43-.58,2.13a9,9,0,0,1-8.71,6.62Z"/><path class="cls-2" d="M45.82,41.63H92.48a8.06,8.06,0,0,1,8,6.63c.07.34.07.69.11,1.16H99.52c-19.21,0-38.41.07-57.62,0a11.71,11.71,0,0,0-11.2,8.69c-2.16,8.55-4.52,17-6.8,25.57,0,.16-.1.32-.22.69,0-.33-.08-.45-.08-.57q0-16.71,0-33.42c0-4,0-8,0-12a6.88,6.88,0,0,1,7.13-7.16c2.66,0,5.32,0,8,0a6.87,6.87,0,0,1,7.1,7.11C45.83,39.39,45.82,40.44,45.82,41.63Z"/><path class="cls-3" d="M116.84,26.92a4.14,4.14,0,0,0-4.27-.88,63.38,63.38,0,0,0-18.51-14.9A59.81,59.81,0,0,0,72.81,4.35c-1.65-.2-3.31-.38-5-.57H61.15c-1.69.19-3.37.37-5.06.58A57.76,57.76,0,0,0,37.31,9.94c-18.88,9.4-30.63,24.79-35,46.18a40.67,40.67,0,0,0-.59,6.27,8.28,8.28,0,0,1-.18,1v6.69c.19,1.65.37,3.3.57,4.94a57.84,57.84,0,0,0,5.56,18.8A64.36,64.36,0,0,0,25.17,116a.86.86,0,0,0,1.14-.07l.62-.62a.78.78,0,0,0-.07-1.17,60.52,60.52,0,1,1,83.65-86.71,4.43,4.43,0,0,0-.91,3.75,4.5,4.5,0,0,0,8.85-1.65A4.33,4.33,0,0,0,116.84,26.92Z"/></svg>