<svg id="Layer_1" data-name="Layer 1" xmlns="http://www.w3.org/2000/svg" xmlns:xlink="http://www.w3.org/1999/xlink" viewBox="0 0 802.55 256.82"><defs><style>.cls-1{fill:url(#linear-gradient);}.cls-2{fill:url(#linear-gradient-2);}.cls-3{fill:url(#linear-gradient-3);}.cls-4{fill:url(#linear-gradient-4);}.cls-5{fill:url(#radial-gradient);}.cls-6{fill:url(#radial-gradient-2);}.cls-7{fill:url(#linear-gradient-5);}.cls-8,.cls-9{fill:none;stroke:#000;stroke-miterlimit:10;stroke-width:0.5px;}.cls-9{stroke-linecap:round;}</style><linearGradient id="linear-gradient" x1="300.03" y1="-488.96" x2="429.01" y2="-415.72" gradientTransform="translate(-19.74 585.02)" gradientUnits="userSpaceOnUse"><stop offset="0.01" stop-color="#d64e9c"/><stop offset="0.14" stop-color="#aa4e9e"/><stop offset="0.29" stop-color="#824f9f"/><stop offset="0.44" stop-color="#624fa0"/><stop offset="0.58" stop-color="#4b4fa1"/><stop offset="0.71" stop-color="#3e4fa2"/><stop offset="0.82" stop-color="#394fa2"/></linearGradient><linearGradient id="linear-gradient-2" x1="295.41" y1="-492.74" x2="457.28" y2="-398.38" gradientTransform="translate(-19.74 585.02)" gradientUnits="userSpaceOnUse"><stop offset="0" stop-color="#4352a4"/><stop offset="0.64" stop-color="#2464b0"/></linearGradient><linearGradient id="linear-gradient-3" x1="233.14" y1="-434.73" x2="455.63" y2="-392.64" gradientTransform="translate(-19.74 585.02)" gradientUnits="userSpaceOnUse"><stop offset="0.03" stop-color="#75cdda"/><stop offset="0.87" stop-color="#0d74bb"/></linearGradient><linearGradient id="linear-gradient-4" x1="302.23" y1="-468.45" x2="432.98" y2="-426.21" gradientTransform="translate(-19.74 585.02)" gradientUnits="userSpaceOnUse"><stop offset="0" stop-color="#7cced0"/><stop offset="0.87" stop-color="#2661ad"/></linearGradient><radialGradient id="radial-gradient" cx="410.37" cy="-515.56" r="182.34" gradientTransform="translate(-19.74 585.02)" gradientUnits="userSpaceOnUse"><stop offset="0" stop-color="#1b5d2f"/><stop offset="0.21" stop-color="#19562e"/><stop offset="0.51" stop-color="#15432c"/><stop offset="0.87" stop-color="#0e2328"/><stop offset="1" stop-color="#0b1626"/></radialGradient><radialGradient id="radial-gradient-2" cx="463.38" cy="-514.88" fx="387.4685657141189" fy="-660.7502287040579" r="164.44" gradientTransform="translate(-19.74 585.02)" gradientUnits="userSpaceOnUse"><stop offset="0" stop-color="#1c3e1d"/><stop offset="0.38" stop-color="#173721"/><stop offset="0.94" stop-color="#0b242c"/><stop offset="1" stop-color="#09212d"/></radialGradient><linearGradient id="linear-gradient-5" x1="251.05" y1="-535.44" x2="573.25" y2="-460.49" gradientTransform="translate(-19.74 585.02)" gradientUnits="userSpaceOnUse"><stop offset="0" stop-color="#68cad9"/><stop offset="0.16" stop-color="#4fc2bf"/><stop offset="0.47" stop-color="#22b390" stop-opacity="0.99"/><stop offset="0.62" stop-color="#10ad7e" stop-opacity="0.99"/><stop offset="0.65" stop-color="#0f9977" stop-opacity="0.99"/><stop offset="0.73" stop-color="#0e7369" stop-opacity="0.98"/><stop offset="0.8" stop-color="#0d555d" stop-opacity="0.98"/><stop offset="0.87" stop-color="#0d4055" stop-opacity="0.97"/><stop offset="0.94" stop-color="#0c3351" stop-opacity="0.97"/><stop offset="1" stop-color="#0c2f4f" stop-opacity="0.97"/></linearGradient></defs><title>logo 79gt_2</title><path class="cls-1" d="M306.8,241.67c.67-1.18,1.22-2.19,1.79-3.18l41-71.49c1.17-2,1.17-2-1.11-2.46a72.93,72.93,0,0,1-18.27-6.18c-1.2-.6-1.48-1-.76-2.29q10.31-17.79,20.45-35.67c.82-1.44,1.47-1.76,3.1-1.16,15,5.49,30.87-3,34.23-18.56,3.49-16.17-8.54-33.1-26.91-32.1a24.35,24.35,0,0,0-17.54,8.68,3.47,3.47,0,0,1-3,1.31q-22.71-.06-45.42,0c-1.54,0-2-.19-1.55-1.87,8-27.54,25.7-45.43,53.65-52.09,36.85-8.78,73.15,13.55,83.93,48.65a70.48,70.48,0,0,1,1.44,36.6,3.68,3.68,0,0,1-2.12,2.69c-17.63,9.58-29.95,23.73-36.17,42.89-3.38,10.45-4.86,21.19-3.23,32.19a2.62,2.62,0,0,1-.46,1.73q-14.7,25.57-29.39,51.16a2,2,0,0,1-2,1.25q-25.29-.06-50.59,0C307.62,241.75,307.33,241.71,306.8,241.67Z"/><path class="cls-2" d="M306.8,241.67c.67-1.18,1.22-2.19,1.79-3.18l41-71.49c1.17-2,1.17-2-1.11-2.46a72.93,72.93,0,0,1-18.27-6.18c-1.2-.6-1.48-1-.76-2.29q10.31-17.79,20.45-35.67c.82-1.44,1.47-1.76,3.1-1.16,15,5.49,30.87-3,34.23-18.56,3.87-20-4-38.33-24.13-45.56-26.19-9.38-29.62-26.29-16.62-30.5,36.85-8.78,73.15,13.55,83.93,48.65a70.48,70.48,0,0,1,1.44,36.6,3.68,3.68,0,0,1-2.12,2.69c-17.63,9.58-29.95,23.73-36.17,42.89-3.38,10.45-4.86,21.19-3.23,32.19a2.62,2.62,0,0,1-.46,1.73q-14.7,25.57-29.39,51.16a2,2,0,0,1-2,1.25q-25.29-.06-50.59,0C307.62,241.75,307.33,241.71,306.8,241.67Z"/><path class="cls-3" d="M288.91,85.23c15.7,0,31.4,0,47.09,0,1.55,0,1.94.18,1.5,1.85-2.67,10-.13,18.58,7.26,25.74a1.74,1.74,0,0,1,.41,2.6q-34.95,60.86-69.79,121.76a10.24,10.24,0,0,1-9.77,5.64c-9.72-.08-19.45,0-29.18,0a14.43,14.43,0,0,1-1.47,0c-4.67-.42-6.16-3.05-3.89-7.2,3-5.39,6.05-10.7,9.1-16l52.35-91.79.28-.48c1.42-2.56,1-3.27-1.9-3.27H237.53a13.71,13.71,0,0,1-2.57-.17c-3.07-.62-4.71-2.74-4.34-5.84.82-7,1.74-14,2.61-21,.17-1.34.38-2.68.51-4,.53-5.34,3-7.61,8.45-7.62q15,0,30.1,0Z"/><path class="cls-4" d="M306.8,241.67c.67-1.18,1.22-2.19,1.79-3.18l41-71.49c1.17-2,1.17-2-1.11-2.46a72.93,72.93,0,0,1-18.27-6.18c-1.2-.6-1.48-1-.76-2.29q10.31-17.79,20.45-35.67c.82-1.44,1.47-1.76,3.1-1.16,15,5.49,38.26-2.12,41.61-17.63,2.86-12,2.35-21.53-1.94-32.08-14.69-36.06,9.83-40.7,26.13-18.79a71.59,71.59,0,0,1,11.61,22.53,70.48,70.48,0,0,1,1.44,36.6,3.68,3.68,0,0,1-2.12,2.69c-17.63,9.58-29.95,23.73-36.17,42.89-3.38,10.45-4.86,21.19-3.23,32.19a2.62,2.62,0,0,1-.46,1.73q-14.7,25.57-29.39,51.16a2,2,0,0,1-2,1.25q-25.29-.06-50.59,0C307.62,241.75,307.33,241.71,306.8,241.67Z"/><path class="cls-5" d="M490.33,197.73c-8.23,0-3.44,0-11.44,0-7.48,0-14.67-5.69-14.67-14.18,0-6.84.09-1.29,0-8.12,0-1.46.47-1.69,1.78-1.69q28.71.06,57.44,0c1.45,0,1.82.38,1.81,1.82q-.09,15.71,0,31.4a7.44,7.44,0,0,1-.94,3.86c-10.79,19.24-26.89,31.26-48.7,35a67.3,67.3,0,0,1-76.49-48.12c-11.21-39.09,13.52-78.36,52.13-85.65,22.53-4.26,42.33,1.76,59.41,17,1.28,1.13,1.24,1.76,0,2.94q-11.35,11.1-22.55,22.37c-.94.94-1.44,1-2.49.09a32.31,32.31,0,1,0-26.21,56.3c11.55,1.72,21.33-2,29.23-10.58A7.09,7.09,0,0,0,490.33,197.73Z"/><path class="cls-6" d="M565.67,242.85c-6.38-.29-13-.19-19.48-1.39-8.21-1.51-13.12-7.07-14-15.39a73.1,73.1,0,0,1-.35-7.55q0-64.53,0-129.07c0-1.65.36-2.18,2.09-2.13,4.24.14,8.49.05,12.74.05a15.41,15.41,0,0,1,15.78,15.72c0,5.72,0,11.45,0,17.17,0,1.4.29,1.9,1.8,1.86,5-.1,10,0,15-.06,1.16,0,1.66.26,1.57,1.52,0,3.06.3,7.75-.39,10.67a14.69,14.69,0,0,1-14.4,11.5c-3.51,0-3.51,0-3.51,3.61,0,20.68,0,39.52,0,60.2,0,1,0,2.09.09,3.13.34,3.47,3.05,5.94,6.94,6.15,3.2.16,6.4.14,9.6.08,1.28,0,1.68.36,1.67,1.66q-.09,10.06,0,20.13c0,1.11-.31,1.42-1.43,1.52C574.84,242.61,570.35,242.7,565.67,242.85Z"/><circle class="cls-7" cx="255.01" cy="55.1" r="24.98"/><path d="M363.25,22a70.81,70.81,0,0,1,52.54,23.76c.61.64,1.2,1.35,1.8,2.05.44.53.9,1.06,1.32,1.6.17.22.35.4.52.62.64.87,1.34,1.89,2,2.89.85,1.23,1.65,2.49,2.42,3.78.61,1,1.21,2,1.81,3.06.37.68.68,1.4,1,2.1.67,1.35,1.34,2.69,2,4.18.88,2.12,1.67,4.29,2.35,6.52.64,2.06,1,4.13,1.49,6.21.08.21.17.38.26.59.11.6.18,1.11.28,1.67.08.41.14.82.21,1.22a61.22,61.22,0,0,1,.86,8.16c0,.52,0,1,0,1.56,0,1,0,2.06-.09,3.1a71.3,71.3,0,0,1-1.58,14.08,3.67,3.67,0,0,1-2.12,2.7c-17.63,9.58-30,23.72-36.16,42.89-3.39,10.45-4.86,21.19-3.24,32.19a2.57,2.57,0,0,1-.46,1.73q-14.7,25.58-29.39,51.16a2,2,0,0,1-2,1.24h0q-25.31,0-50.6,0c-.28,0-.56,0-1.09-.09.66-1.18,1.21-2.18,1.78-3.17,13.67-23.83,28-48.82,41.64-72.65.4-.89,0-1-1.74-1.3a72.73,72.73,0,0,1-18.26-6.18c-1.21-.6-1.49-1-.76-2.29q10.29-17.81,20.44-35.68c.56-1,1-1.44,1.82-1.44a3.76,3.76,0,0,1,1.28.28,27.2,27.2,0,0,0,5.31,1.34l.46.08a26.39,26.39,0,0,0,3.53.24A25.34,25.34,0,0,0,387.85,100c.28-1.46.37-2.89.52-4.33.71-14.26-10-27.81-25.89-27.81-.51,0-1,0-1.54,0a24.37,24.37,0,0,0-17.54,8.67,3.48,3.48,0,0,1-3,1.32h0q-11.44,0-22.88,0-11.27,0-22.54,0h-.06c-1.49,0-2-.2-1.49-1.86,8-27.55,25.7-45.43,53.65-52.09A69.68,69.68,0,0,1,363.25,22m0-.5A70.65,70.65,0,0,0,347,23.42c-27.63,6.59-45.8,24.23-54,52.44a2.26,2.26,0,0,0,0,1.94c.39.52,1.13.56,1.93.56H295c7.25,0,14.84,0,22.54,0,7.3,0,15,0,22.88,0a4,4,0,0,0,3.36-1.49A23.84,23.84,0,0,1,361,68.37c.51,0,1,0,1.52,0A24.81,24.81,0,0,1,380.65,76a26.66,26.66,0,0,1,7.23,19.59c0,.35-.08.73-.12,1.12-.1,1-.2,2.08-.4,3.14a24.88,24.88,0,0,1-24.44,19.8,26.81,26.81,0,0,1-3.46-.23l-.21,0-.24,0a26.4,26.4,0,0,1-5.22-1.31,4.4,4.4,0,0,0-1.45-.31c-1.07,0-1.67.68-2.25,1.7-6.22,11-12.91,22.64-20.45,35.67a2.27,2.27,0,0,0-.41,1.73c.17.56.68.9,1.38,1.25A74,74,0,0,0,349,164.32h.05a7.52,7.52,0,0,1,1.42.35,1.31,1.31,0,0,1-.09.25c-7.06,12.3-14.31,25-21.56,37.6l-20.05,35c-.39.67-.76,1.34-1.17,2.07l-.62,1.11-.38.68.78.06.47,0a6.07,6.07,0,0,0,.66,0h11.4c12.85,0,26.13,0,39.2,0a2.5,2.5,0,0,0,2.42-1.49c10-17.35,19.84-34.54,29.39-51.16a3,3,0,0,0,.52-2.06c-1.5-10.19-.45-20.64,3.22-32,6-18.59,18.12-32.92,35.93-42.6a4.16,4.16,0,0,0,2.37-3,72.68,72.68,0,0,0,1.59-14.18c.06-1,.09-2.06.09-3.11,0-.24,0-.46,0-.68s0-.6,0-.9a61.38,61.38,0,0,0-.87-8.22q-.09-.61-.21-1.23c0-.21-.07-.42-.1-.64s-.11-.66-.18-1v0l0,0a3.49,3.49,0,0,0-.15-.34l-.09-.22-.18-.82c-.37-1.77-.76-3.59-1.31-5.39-.67-2.19-1.47-4.39-2.37-6.56-.63-1.51-1.32-2.88-2-4.2-.14-.27-.26-.54-.39-.8-.2-.44-.41-.89-.65-1.33-.5-.92-1-1.76-1.51-2.57l-.31-.51c-.9-1.49-1.67-2.7-2.44-3.81l-.31-.45c-.58-.84-1.17-1.71-1.72-2.45-.1-.13-.2-.24-.3-.36l-.22-.26c-.3-.39-.62-.76-.93-1.14l-.41-.48-.15-.17c-.54-.65-1.1-1.31-1.67-1.91a71.34,71.34,0,0,0-52.9-23.91Z"/><path d="M465.65,110c16.9,0,32.1,6.28,45.61,18.31,1.28,1.13,1.24,1.76,0,2.94q-11.37,11.1-22.56,22.36c-.49.49-.85.74-1.24.74a2.09,2.09,0,0,1-1.25-.64,32.58,32.58,0,0,0-21.31-8.05A32.37,32.37,0,0,0,460.05,210a36.23,36.23,0,0,0,5.42.42c9.21,0,17.17-3.76,23.8-11a7.14,7.14,0,0,0,1.67-2.46H485.1l-5.59,0c-7.49,0-14.68-5.68-14.68-14.18,0-6.83.09-1.28,0-8.12,0-1.45.46-1.68,1.76-1.68h0q14.25,0,28.49,0,14.47,0,28.95,0h0c1.44,0,1.8.38,1.8,1.82q-.11,15.69,0,31.4a7.38,7.38,0,0,1-.94,3.85c-10.79,19.25-26.89,31.27-48.7,35a68.59,68.59,0,0,1-11.71,1A67.27,67.27,0,0,1,399.72,197c-11.21-39.09,13.52-78.36,52.13-85.66a74.39,74.39,0,0,1,13.8-1.33m0-.5a75,75,0,0,0-13.89,1.34,68.77,68.77,0,0,0-27.91,122.23,67.17,67.17,0,0,0,40.65,13.54,70.07,70.07,0,0,0,11.8-1c21.5-3.7,38-15.56,49.05-35.26a8,8,0,0,0,1-4.11c0-12.17,0-22.14,0-31.39a1.92,1.92,0,0,0-2.3-2.32c-9.32,0-19.06,0-29,0q-14.25,0-28.49,0a2.45,2.45,0,0,0-1.8.49,2.43,2.43,0,0,0-.48,1.7c.05,3.66.05,3.75,0,4.11s0,.83,0,4c0,9.07,7.88,14.68,15.18,14.68h1.71l3.88,0h5.06A7.58,7.58,0,0,1,489,199l-.08.09c-6.58,7.18-14.47,10.83-23.43,10.83a36.41,36.41,0,0,1-5.35-.41,31.75,31.75,0,0,1-26.28-37.68c3.19-15.11,16-25.67,31.1-25.67a32,32,0,0,1,21,7.93,2.45,2.45,0,0,0,1.57.76,2.38,2.38,0,0,0,1.6-.88c8.4-8.43,15.77-15.74,22.55-22.37a2.74,2.74,0,0,0,1.06-1.88A2.71,2.71,0,0,0,511.6,128c-13.75-12.23-29.21-18.43-46-18.43Z"/><path d="M336.68,84.49c1.49,0,1.87.2,1.43,1.85-2.67,10-.13,18.58,7.26,25.73.94.91,1.06,1.48.41,2.61Q310.85,175.54,276,236.44a10.21,10.21,0,0,1-9.62,5.64h-.14Q260.09,242,254,242l-16.4,0h-.7c-.43,0-.87,0-1.3,0-4.67-.42-6.16-3.06-3.89-7.2,3-5.4,6.06-10.71,9.1-16.05L293.13,127l.28-.48c1.42-2.56,1-3.28-1.9-3.28H238.14a13,13,0,0,1-2.57-.18c-3.07-.61-4.7-2.73-4.34-5.84.82-7,1.74-14,2.62-21,.16-1.34.37-2.68.5-4,.53-5.34,3-7.61,8.45-7.61h67.39q13.21,0,26.43,0h.06m0-.5h-.07c-9.47,0-18.67,0-26.42,0H242.8c-5.72,0-8.39,2.42-9,8.07-.08.88-.21,1.79-.32,2.66l-.18,1.35c-.25,2-.51,4-.76,6-.63,4.92-1.27,10-1.86,15-.39,3.32,1.39,5.71,4.74,6.38a13.76,13.76,0,0,0,2.67.19h53.37c1.56,0,2,.24,2.14.43s-.06,1-.68,2.1a2.54,2.54,0,0,1-.16.28l-.11.2-12.45,21.82-39.9,70-2.45,4.27c-2.21,3.84-4.49,7.82-6.65,11.78-1.21,2.2-1.44,4-.68,5.44s2.46,2.27,5,2.5c.44,0,.87,0,1.34,0H254c4.78,0,8.67,0,12.25.05h.15a10.69,10.69,0,0,0,10.06-5.89c25.23-44.14,50.55-88.26,69.78-121.76a2.24,2.24,0,0,0-.49-3.22c-7.31-7.07-9.71-15.57-7.13-25.24.22-.84.3-1.49,0-2s-1.07-.53-1.86-.53Z"/><path d="M534.3,86.6h.23c1.8.06,3.61.07,5.41.07l7.24,0h.09a15.41,15.41,0,0,1,15.78,15.72c0,5.73.05,11.45,0,17.18,0,1.35.27,1.86,1.67,1.86h.13c2,0,4,0,6,0h5.05l3.93,0h.08c1.1,0,1.58.28,1.5,1.52,0,3,.29,7.75-.4,10.67A14.67,14.67,0,0,1,566.57,145c-3.51.05-3.51.05-3.51,3.62,0,20.68,0,39.51,0,60.19a29.86,29.86,0,0,0,.1,3.14c.33,3.46,3,5.94,6.93,6.14,1.85.1,3.71.13,5.56.13,1.35,0,2.7,0,4,0h.11c1.2,0,1.57.39,1.56,1.66q-.09,10,0,20.12c0,1.11-.31,1.43-1.43,1.52-4.48.39-9,.47-13.65.63-6.38-.29-13-.2-19.48-1.39-8.21-1.51-13.12-7.07-14-15.39a70.64,70.64,0,0,1-.34-7.55q0-64.55,0-129.08c0-1.57.33-2.13,1.86-2.13m0-.5a2.37,2.37,0,0,0-1.79.55,2.89,2.89,0,0,0-.57,2.08c0,43.27,0,86.89,0,129.08a72.83,72.83,0,0,0,.34,7.6c.9,8.67,6,14.29,14.39,15.83a101.39,101.39,0,0,0,15.06,1.24c1.5,0,3,.09,4.49.16l2.35-.08c3.92-.11,7.61-.23,11.36-.55,1.39-.12,1.9-.67,1.89-2-.05-7.33-.05-13.91,0-20.12a2.27,2.27,0,0,0-.49-1.67,2.1,2.1,0,0,0-1.57-.49h-.12c-1.61,0-2.85,0-4,0-2,0-3.86,0-5.53-.13-3.61-.19-6.15-2.42-6.47-5.69-.09-1-.09-2-.09-2.93V148.65c0-1.55,0-2.48.29-2.79s1.21-.31,2.72-.33a15.24,15.24,0,0,0,14.88-11.88,39.1,39.1,0,0,0,.43-8.59c0-.78,0-1.53,0-2.19a2,2,0,0,0-.4-1.52,2.1,2.1,0,0,0-1.6-.5h-.08l-3.93,0H570.8c-1.65,0-3.81,0-6,0h-.12a1.46,1.46,0,0,1-1-.21c-.16-.16-.22-.51-.21-1.15.06-5,.07-10.49,0-17.18a16,16,0,0,0-16.28-16.22h-.09l-3.62,0h-3.62c-2.1,0-3.82,0-5.4-.07Z"/><path d="M255.62,29.4a25,25,0,1,1-25,25,25,25,0,0,1,25-25m0-.5A25.48,25.48,0,1,0,281.1,54.38,25.51,25.51,0,0,0,255.62,28.9Z"/><path class="cls-8" d="M391.9,209q-9.22,16-18.44,32.1h42.81A78.72,78.72,0,0,1,391.9,209Z"/><path class="cls-8" d="M299.37,232.13l20.19-35.23,14.62-25.51c-2.17-.79-4.27-1.69-6.35-2.65-13.08,22.81-27.24,47.53-41.42,72.32h7.94l3.78-6.73C298.56,233.55,299,232.84,299.37,232.13Z"/><path id="line" class="cls-9" d="M794.9,241.06H592.65c0-.37.05-.76.05-1.15-.06-7.27-.05-13.79,0-19.94a12.78,12.78,0,0,0-3.63-9.4,12.64,12.64,0,0,0-9.27-3.7h-.31c-1.28,0-2.55,0-3.83,0H574.4c0-17,0-51.73,0-51.73a25.87,25.87,0,0,0,17.61-19,46.54,46.54,0,0,0,.72-11.29c0-.63,0-1.22,0-1.76A12.41,12.41,0,0,0,579.86,110h-.2c-1.29,0-2.57,0-3.86,0h-1.38c0-2.41,0-5,0-7.74-.12-15.37-11.77-27-27.19-27l-3.7,0h-3.56c-2,0-3.59,0-5.05-.07h-.59A13,13,0,0,0,524.84,79a13.24,13.24,0,0,0-3.73,9.76q0,16.89,0,33.69a15.53,15.53,0,0,0-2.33-2.56c-15.78-14-33.67-21.18-53.15-21.18a86.33,86.33,0,0,0-15.9,1.53c-1.58.3-3.13.66-4.67,1,.15-1.86.26-3.78.3-5.77.07-1.17.1-2.36.09-3.55v-.51c0-.49,0-1,0-1.45a73.35,73.35,0,0,0-1-9.58c-.08-.47-.16-1-.23-1.35l-.09-.51c-.07-.43-.14-.85-.23-1.32l-.19-1-.33-.86c-.4-1.86-.85-4-1.52-6.14-.77-2.52-1.69-5.06-2.73-7.55-.77-1.85-1.57-3.45-2.27-4.84-.1-.2-.19-.41-.29-.61-.29-.61-.58-1.22-.93-1.88-.64-1.18-1.26-2.18-1.8-3.07l-.26-.42c-1-1.7-1.91-3.09-2.8-4.38l-.31-.45c-.67-1-1.33-1.93-2-2.76-.24-.33-.49-.64-.77-1s-.73-.9-1.1-1.34l-.55-.65c-.58-.69-1.23-1.46-2-2.25a82.2,82.2,0,0,0-60.88-27.41,81.22,81.22,0,0,0-18.78,2.22c-23.42,5.58-41.31,18.62-52.7,38.17a36.31,36.31,0,1,0-63.25,27.48A20,20,0,0,0,223.07,91c-.08.77-.18,1.53-.29,2.29l-.18,1.44-.76,5.94c-.63,5-1.28,10.1-1.87,15.19-1.05,9,4.45,16.48,13.38,18.27a23.55,23.55,0,0,0,4.78.39h37.62l-44.82,78.59-2.43,4.24c-2.23,3.89-4.54,7.92-6.76,12a17.07,17.07,0,0,0-2.16,11.7H7.64"/></svg>