<svg id="Layer_1" data-name="Layer 1" xmlns="http://www.w3.org/2000/svg" xmlns:xlink="http://www.w3.org/1999/xlink" viewBox="0 0 120 120"><defs><style>.cls-1{fill:url(#linear-gradient);}.cls-2{fill:url(#linear-gradient-2);}.cls-3{fill:url(#linear-gradient-3);}.cls-4{fill:url(#linear-gradient-4);}.cls-5{fill:url(#linear-gradient-5);}.cls-6{fill:url(#linear-gradient-6);}.cls-7{fill:url(#linear-gradient-7);}.cls-8{fill:url(#linear-gradient-8);}.cls-9{fill:url(#linear-gradient-9);}.cls-10{fill:url(#linear-gradient-10);}.cls-11{fill:url(#linear-gradient-11);}.cls-12{fill:url(#linear-gradient-12);}.cls-13{fill:url(#linear-gradient-13);}.cls-14{fill:url(#linear-gradient-14);}.cls-15{fill:url(#linear-gradient-15);}.cls-16{fill:url(#linear-gradient-16);}.cls-17{fill:url(#linear-gradient-17);}.cls-18{fill:url(#linear-gradient-18);}.cls-19{fill:url(#linear-gradient-19);}.cls-20{fill:url(#linear-gradient-20);}.cls-21{fill:url(#linear-gradient-21);}.cls-22{fill:url(#linear-gradient-22);}.cls-23{fill:url(#linear-gradient-23);}.cls-24{fill:url(#linear-gradient-24);}.cls-25{fill:url(#linear-gradient-25);}.cls-26{fill:url(#linear-gradient-26);}.cls-27{fill:url(#linear-gradient-27);}.cls-28{fill:url(#linear-gradient-28);}.cls-29{fill:url(#linear-gradient-29);}.cls-30{fill:url(#linear-gradient-30);}.cls-31{fill:url(#linear-gradient-31);}.cls-32{fill:url(#linear-gradient-32);}.cls-33{fill:url(#linear-gradient-33);}.cls-34{fill:url(#linear-gradient-34);}.cls-35{fill:url(#linear-gradient-35);}.cls-36{fill:url(#linear-gradient-36);}.cls-37{fill:url(#linear-gradient-37);}.cls-38{fill:url(#linear-gradient-38);}.cls-39{fill:url(#linear-gradient-39);}.cls-40{fill:url(#linear-gradient-40);}.cls-41{fill:url(#linear-gradient-41);}.cls-42{fill:url(#linear-gradient-42);}.cls-43{fill:url(#linear-gradient-43);}.cls-44{fill:url(#linear-gradient-44);}.cls-45{fill:url(#linear-gradient-45);}.cls-46{fill:url(#linear-gradient-46);}.cls-47{fill:url(#linear-gradient-47);}.cls-48{fill:url(#linear-gradient-48);}.cls-49{fill:url(#linear-gradient-49);}.cls-50{fill:url(#linear-gradient-50);}.cls-51{fill:url(#linear-gradient-51);}.cls-52{fill:url(#linear-gradient-52);}.cls-53{fill:url(#linear-gradient-53);}.cls-54{fill:url(#linear-gradient-54);}.cls-55{fill:url(#linear-gradient-55);}.cls-56{fill:url(#linear-gradient-56);}.cls-57{fill:url(#linear-gradient-57);}.cls-58{fill:url(#linear-gradient-58);}.cls-59{fill:url(#linear-gradient-59);}.cls-60{fill:url(#linear-gradient-60);}.cls-61{fill:url(#linear-gradient-61);}.cls-62{fill:url(#linear-gradient-62);}.cls-63{fill:url(#linear-gradient-63);}.cls-64{fill:url(#linear-gradient-64);}.cls-65{fill:url(#linear-gradient-65);}.cls-66{fill:url(#linear-gradient-66);}.cls-67{fill:url(#linear-gradient-67);}.cls-68{fill:url(#linear-gradient-68);}.cls-69{fill:url(#linear-gradient-69);}.cls-70{fill:url(#linear-gradient-70);}.cls-71{fill:url(#linear-gradient-71);}.cls-72{fill:url(#linear-gradient-72);}.cls-73{fill:url(#linear-gradient-73);}.cls-74{fill:url(#linear-gradient-74);}.cls-75{fill:url(#linear-gradient-75);}.cls-76{fill:url(#linear-gradient-76);}.cls-77{fill:url(#linear-gradient-77);}.cls-78{fill:url(#linear-gradient-78);}.cls-79{fill:url(#linear-gradient-79);}.cls-80{fill:url(#linear-gradient-80);}.cls-81{fill:url(#linear-gradient-81);}.cls-82{fill:url(#linear-gradient-82);}.cls-83{fill:url(#linear-gradient-83);}.cls-84{fill:url(#linear-gradient-84);}.cls-85{fill:url(#linear-gradient-85);}.cls-86{fill:url(#linear-gradient-86);}.cls-87{fill:url(#linear-gradient-87);}.cls-88{fill:url(#linear-gradient-88);}.cls-89{fill:url(#linear-gradient-89);}.cls-90{fill:url(#linear-gradient-90);}.cls-91{fill:url(#linear-gradient-91);}.cls-92{fill:url(#linear-gradient-92);}.cls-93{fill:url(#linear-gradient-93);}</style><linearGradient id="linear-gradient" x1="33.12" y1="62.73" x2="90.5" y2="62.73" gradientUnits="userSpaceOnUse"><stop offset="0" stop-color="#621ee6"/><stop offset="0.25" stop-color="#5f1de7"/><stop offset="0.45" stop-color="#551ae9"/><stop offset="0.62" stop-color="#4515ed"/><stop offset="0.78" stop-color="#2e0ef3"/><stop offset="0.93" stop-color="#1105fb"/><stop offset="1" stop-color="blue"/></linearGradient><linearGradient id="linear-gradient-2" x1="43.68" y1="52.27" x2="77.41" y2="52.27" xlink:href="#linear-gradient"/><linearGradient id="linear-gradient-3" x1="45.42" y1="85.02" x2="75.67" y2="85.02" xlink:href="#linear-gradient"/><linearGradient id="linear-gradient-4" x1="45.38" y1="92.16" x2="75.67" y2="92.16" xlink:href="#linear-gradient"/><linearGradient id="linear-gradient-5" x1="45.3" y1="71.34" x2="53.6" y2="71.34" xlink:href="#linear-gradient"/><linearGradient id="linear-gradient-6" x1="62.12" y1="71.34" x2="68.08" y2="71.34" xlink:href="#linear-gradient"/><linearGradient id="linear-gradient-7" x1="70.28" y1="71.33" x2="76.3" y2="71.33" xlink:href="#linear-gradient"/><linearGradient id="linear-gradient-8" x1="55.86" y1="71.35" x2="59.87" y2="71.35" xlink:href="#linear-gradient"/><linearGradient id="linear-gradient-9" x1="85.95" y1="80.94" x2="87.13" y2="80.94" xlink:href="#linear-gradient"/><linearGradient id="linear-gradient-10" x1="82.56" y1="80.94" x2="83.77" y2="80.94" xlink:href="#linear-gradient"/><linearGradient id="linear-gradient-11" x1="82.56" y1="40.29" x2="83.78" y2="40.29" xlink:href="#linear-gradient"/><linearGradient id="linear-gradient-12" x1="85.98" y1="77.68" x2="86.92" y2="77.68" xlink:href="#linear-gradient"/><linearGradient id="linear-gradient-13" x1="82.56" y1="77.55" x2="83.78" y2="77.55" xlink:href="#linear-gradient"/><linearGradient id="linear-gradient-14" x1="82.6" y1="43.81" x2="83.53" y2="43.81" xlink:href="#linear-gradient"/><linearGradient id="linear-gradient-15" x1="85.95" y1="43.67" x2="87.13" y2="43.67" xlink:href="#linear-gradient"/><linearGradient id="linear-gradient-16" x1="82.56" y1="74.17" x2="83.77" y2="74.17" xlink:href="#linear-gradient"/><linearGradient id="linear-gradient-17" x1="82.6" y1="46.92" x2="83.53" y2="46.92" xlink:href="#linear-gradient"/><linearGradient id="linear-gradient-18" x1="85.95" y1="47.05" x2="87.13" y2="47.05" xlink:href="#linear-gradient"/><linearGradient id="linear-gradient-19" x1="84.35" y1="31.6" x2="85.28" y2="31.6" xlink:href="#linear-gradient"/><linearGradient id="linear-gradient-20" x1="82.6" y1="84.42" x2="83.54" y2="84.42" xlink:href="#linear-gradient"/><linearGradient id="linear-gradient-21" x1="84.35" y1="82.72" x2="85.28" y2="82.72" xlink:href="#linear-gradient"/><linearGradient id="linear-gradient-22" x1="84.35" y1="48.82" x2="85.28" y2="48.82" xlink:href="#linear-gradient"/><linearGradient id="linear-gradient-23" x1="87.75" y1="48.82" x2="88.68" y2="48.82" xlink:href="#linear-gradient"/><linearGradient id="linear-gradient-24" x1="82.59" y1="50.31" x2="83.53" y2="50.31" xlink:href="#linear-gradient"/><linearGradient id="linear-gradient-25" x1="84.35" y1="65.71" x2="85.29" y2="65.71" xlink:href="#linear-gradient"/><linearGradient id="linear-gradient-26" x1="87.75" y1="65.62" x2="88.91" y2="65.62" xlink:href="#linear-gradient"/><linearGradient id="linear-gradient-27" x1="87.75" y1="75.82" x2="88.9" y2="75.82" xlink:href="#linear-gradient"/><linearGradient id="linear-gradient-28" x1="84.35" y1="79.11" x2="85.28" y2="79.11" xlink:href="#linear-gradient"/><linearGradient id="linear-gradient-29" x1="84.36" y1="35.13" x2="85.52" y2="35.13" xlink:href="#linear-gradient"/><linearGradient id="linear-gradient-30" x1="87.75" y1="35.01" x2="88.68" y2="35.01" xlink:href="#linear-gradient"/><linearGradient id="linear-gradient-31" x1="82.6" y1="37.03" x2="83.53" y2="37.03" xlink:href="#linear-gradient"/><linearGradient id="linear-gradient-32" x1="85.95" y1="36.91" x2="87.13" y2="36.91" xlink:href="#linear-gradient"/><linearGradient id="linear-gradient-33" x1="87.76" y1="79.19" x2="88.9" y2="79.19" xlink:href="#linear-gradient"/><linearGradient id="linear-gradient-34" x1="84.36" y1="85.97" x2="85.51" y2="85.97" xlink:href="#linear-gradient"/><linearGradient id="linear-gradient-35" x1="85.97" y1="84.42" x2="86.91" y2="84.42" xlink:href="#linear-gradient"/><linearGradient id="linear-gradient-36" x1="84.36" y1="99.6" x2="85.29" y2="99.6" xlink:href="#linear-gradient"/><linearGradient id="linear-gradient-37" x1="84.13" y1="45.31" x2="85.28" y2="45.31" xlink:href="#linear-gradient"/><linearGradient id="linear-gradient-38" x1="87.75" y1="45.22" x2="88.68" y2="45.22" xlink:href="#linear-gradient"/><linearGradient id="linear-gradient-39" x1="85.98" y1="40.41" x2="86.91" y2="40.41" xlink:href="#linear-gradient"/><linearGradient id="linear-gradient-40" x1="85.98" y1="50.32" x2="86.91" y2="50.32" xlink:href="#linear-gradient"/><linearGradient id="linear-gradient-41" x1="84.35" y1="52.09" x2="85.51" y2="52.09" xlink:href="#linear-gradient"/><linearGradient id="linear-gradient-42" x1="87.74" y1="99.39" x2="88.67" y2="99.39" xlink:href="#linear-gradient"/><linearGradient id="linear-gradient-43" x1="84.32" y1="102.89" x2="85.49" y2="102.89" xlink:href="#linear-gradient"/><linearGradient id="linear-gradient-44" x1="85.98" y1="74.07" x2="86.92" y2="74.07" xlink:href="#linear-gradient"/><linearGradient id="linear-gradient-45" x1="84.35" y1="69.1" x2="85.29" y2="69.1" xlink:href="#linear-gradient"/><linearGradient id="linear-gradient-46" x1="87.76" y1="68.89" x2="88.67" y2="68.89" xlink:href="#linear-gradient"/><linearGradient id="linear-gradient-47" x1="87.75" y1="41.83" x2="88.68" y2="41.83" xlink:href="#linear-gradient"/><linearGradient id="linear-gradient-48" x1="85.95" y1="33.51" x2="87.16" y2="33.51" xlink:href="#linear-gradient"/><linearGradient id="linear-gradient-49" x1="84.31" y1="38.52" x2="85.49" y2="38.52" xlink:href="#linear-gradient"/><linearGradient id="linear-gradient-50" x1="87.74" y1="38.62" x2="88.68" y2="38.62" xlink:href="#linear-gradient"/><linearGradient id="linear-gradient-51" x1="84.36" y1="42.01" x2="85.28" y2="42.01" xlink:href="#linear-gradient"/><linearGradient id="linear-gradient-52" x1="84.35" y1="75.72" x2="85.29" y2="75.72" xlink:href="#linear-gradient"/><linearGradient id="linear-gradient-53" x1="87.76" y1="52.09" x2="88.9" y2="52.09" xlink:href="#linear-gradient"/><linearGradient id="linear-gradient-54" x1="82.6" y1="53.69" x2="83.53" y2="53.69" xlink:href="#linear-gradient"/><linearGradient id="linear-gradient-55" x1="87.76" y1="85.97" x2="88.9" y2="85.97" xlink:href="#linear-gradient"/><linearGradient id="linear-gradient-56" x1="87.75" y1="58.73" x2="88.68" y2="58.73" xlink:href="#linear-gradient"/><linearGradient id="linear-gradient-57" x1="82.59" y1="87.58" x2="83.53" y2="87.58" xlink:href="#linear-gradient"/><linearGradient id="linear-gradient-58" x1="85.98" y1="87.6" x2="86.91" y2="87.6" xlink:href="#linear-gradient"/><linearGradient id="linear-gradient-59" x1="85.95" y1="91.1" x2="87.13" y2="91.1" xlink:href="#linear-gradient"/><linearGradient id="linear-gradient-60" x1="85.98" y1="60.73" x2="86.92" y2="60.73" xlink:href="#linear-gradient"/><linearGradient id="linear-gradient-61" x1="85.98" y1="67.53" x2="86.91" y2="67.53" xlink:href="#linear-gradient"/><linearGradient id="linear-gradient-62" x1="85.97" y1="53.92" x2="86.92" y2="53.92" xlink:href="#linear-gradient"/><linearGradient id="linear-gradient-63" x1="82.56" y1="70.79" x2="83.78" y2="70.79" xlink:href="#linear-gradient"/><linearGradient id="linear-gradient-64" x1="85.94" y1="94.5" x2="87.14" y2="94.5" xlink:href="#linear-gradient"/><linearGradient id="linear-gradient-65" x1="85.98" y1="57.1" x2="86.91" y2="57.1" xlink:href="#linear-gradient"/><linearGradient id="linear-gradient-66" x1="87.74" y1="82.6" x2="88.9" y2="82.6" xlink:href="#linear-gradient"/><linearGradient id="linear-gradient-67" x1="84.32" y1="72.4" x2="85.52" y2="72.4" xlink:href="#linear-gradient"/><linearGradient id="linear-gradient-68" x1="85.98" y1="101.18" x2="86.92" y2="101.18" xlink:href="#linear-gradient"/><linearGradient id="linear-gradient-69" x1="87.75" y1="72.4" x2="88.95" y2="72.4" xlink:href="#linear-gradient"/><linearGradient id="linear-gradient-70" x1="85.98" y1="70.9" x2="86.91" y2="70.9" xlink:href="#linear-gradient"/><linearGradient id="linear-gradient-71" x1="87.76" y1="62.23" x2="88.94" y2="62.23" xlink:href="#linear-gradient"/><linearGradient id="linear-gradient-72" x1="82.59" y1="33.43" x2="83.53" y2="33.43" xlink:href="#linear-gradient"/><linearGradient id="linear-gradient-73" x1="85.95" y1="64.01" x2="87.16" y2="64.01" xlink:href="#linear-gradient"/><linearGradient id="linear-gradient-74" x1="84.32" y1="62.23" x2="85.48" y2="62.23" xlink:href="#linear-gradient"/><linearGradient id="linear-gradient-75" x1="82.59" y1="67.31" x2="83.53" y2="67.31" xlink:href="#linear-gradient"/><linearGradient id="linear-gradient-76" x1="82.56" y1="60.61" x2="83.78" y2="60.61" xlink:href="#linear-gradient"/><linearGradient id="linear-gradient-77" x1="84.36" y1="58.96" x2="85.28" y2="58.96" xlink:href="#linear-gradient"/><linearGradient id="linear-gradient-78" x1="82.56" y1="57.22" x2="83.77" y2="57.22" xlink:href="#linear-gradient"/><linearGradient id="linear-gradient-79" x1="87.76" y1="55.58" x2="88.68" y2="55.58" xlink:href="#linear-gradient"/><linearGradient id="linear-gradient-80" x1="84.36" y1="55.37" x2="85.28" y2="55.37" xlink:href="#linear-gradient"/><linearGradient id="linear-gradient-81" x1="82.56" y1="94.49" x2="83.78" y2="94.49" xlink:href="#linear-gradient"/><linearGradient id="linear-gradient-82" x1="84.36" y1="89.49" x2="85.28" y2="89.49" xlink:href="#linear-gradient"/><linearGradient id="linear-gradient-83" x1="84.35" y1="96.22" x2="85.28" y2="96.22" xlink:href="#linear-gradient"/><linearGradient id="linear-gradient-84" x1="87.76" y1="95.99" x2="88.68" y2="95.99" xlink:href="#linear-gradient"/><linearGradient id="linear-gradient-85" x1="82.6" y1="98.02" x2="83.53" y2="98.02" xlink:href="#linear-gradient"/><linearGradient id="linear-gradient-86" x1="85.95" y1="97.89" x2="87.16" y2="97.89" xlink:href="#linear-gradient"/><linearGradient id="linear-gradient-87" x1="82.56" y1="64.01" x2="83.78" y2="64.01" xlink:href="#linear-gradient"/><linearGradient id="linear-gradient-88" x1="87.76" y1="89.46" x2="88.68" y2="89.46" xlink:href="#linear-gradient"/><linearGradient id="linear-gradient-89" x1="82.59" y1="101.41" x2="83.53" y2="101.41" xlink:href="#linear-gradient"/><linearGradient id="linear-gradient-90" x1="84.36" y1="92.85" x2="85.28" y2="92.85" xlink:href="#linear-gradient"/><linearGradient id="linear-gradient-91" x1="82.56" y1="91.1" x2="83.78" y2="91.1" xlink:href="#linear-gradient"/><linearGradient id="linear-gradient-92" x1="87.75" y1="92.85" x2="88.68" y2="92.85" xlink:href="#linear-gradient"/><linearGradient id="linear-gradient-93" x1="1.5" y1="60" x2="118.5" y2="60" gradientUnits="userSpaceOnUse"><stop offset="0.33" stop-color="#621ee6"/><stop offset="0.51" stop-color="#5f1de7"/><stop offset="0.63" stop-color="#561ae9"/><stop offset="0.75" stop-color="#4615ed"/><stop offset="0.85" stop-color="#2f0ef3"/><stop offset="0.95" stop-color="#1206fa"/><stop offset="1" stop-color="blue"/></linearGradient></defs><title>menu</title><path class="cls-1" d="M73.79,19.57a13.32,13.32,0,0,1,1.73.81,4.59,4.59,0,0,1,2.11,4.08c0,1.6,0,3.2,0,4.92h.94c2.08,0,4.16,0,6.24,0a5.46,5.46,0,0,1,5.68,5.68q0,32.57,0,65.14a5.43,5.43,0,0,1-5.67,5.68H34.26c-1,0-1.12-.12-1.12-1.12q0-37.12,0-74.24c0-.78.3-1.06,1-1.24q18.76-4.74,37.5-9.53a3.83,3.83,0,0,0,.46-.18Zm-39.27,85h1.09q22.67,0,45.34,0a13,13,0,0,0,1.92-.3.72.72,0,0,1,.41,0c1.37.72,2.64.2,3.89-.33.37-.15.77-.36.57-1,0-.12.29-.38.47-.55s.55-.26.6-.45a8.09,8.09,0,0,0,.31-2c0-21.55,0-43.1.05-64.64a4.65,4.65,0,0,0-4.61-4.63c-16.38.07-32.76,0-49.13,0h-.92Z"/><path class="cls-2" d="M74.63,58.26a9.23,9.23,0,0,1,1.3.27,2.35,2.35,0,0,1-.68,4.52c-.45,0-.9,0-1.35,0H46.27a2.36,2.36,0,1,1-.39-4.71c.3,0,.61,0,.95,0,.2-.74.35-1.46.59-2.14a13.83,13.83,0,0,1,10.41-9.33c.5-.12.72-.3.69-.83,0-.7,0-1.4,0-2.11A2.24,2.24,0,1,1,63,44c0,.9,0,1.79,0,2.69C69.34,48.11,73.2,52,74.63,58.26Zm-1.48,0a12.59,12.59,0,0,0-24.79,0ZM60.56,61.73H74.37a6.75,6.75,0,0,0,.76,0c.59-.07,1-.45.89-1-.08-.37-.5-.72-.84-1-.16-.12-.49,0-.74,0H46.65a4.76,4.76,0,0,0-.67,0,1,1,0,0,0-.93,1,.94.94,0,0,0,.94,1c.25,0,.5,0,.76,0Zm1.05-15.2a23.19,23.19,0,0,0,0-2.82c0-.32-.41-.88-.82-.88s-.78.55-.81.87a24.14,24.14,0,0,0,0,2.83Z"/><path class="cls-3" d="M60.55,84.35H74.37a1.85,1.85,0,0,1,.83.06,1,1,0,0,1,.48.67c0,.21-.33.46-.56.59a1.52,1.52,0,0,1-.66,0H46.65a1.51,1.51,0,0,1-.66,0c-.24-.13-.55-.38-.56-.59a1,1,0,0,1,.49-.67,1.86,1.86,0,0,1,.83-.06Z"/><path class="cls-4" d="M60.64,91.48H74.29a2.15,2.15,0,0,1,.83,0c.24.11.55.38.55.59s-.27.52-.49.66a1.54,1.54,0,0,1-.74.07H46.64c-.2,0-.45.06-.58,0a5,5,0,0,1-.68-.71,3.34,3.34,0,0,1,.69-.59,1.89,1.89,0,0,1,.75,0Z"/><path class="cls-5" d="M49.51,72.73c.42-1.48.81-3,1.29-4.43.13-.38.52-.89.85-.94.58-.1.69.49.79,1,.36,1.9.73,3.8,1.1,5.7a.86.86,0,0,1,0,.41,7.92,7.92,0,0,1-.41.8c-.25-.21-.66-.37-.72-.63-.3-1.25-.51-2.53-.75-3.8a.69.69,0,0,0-.28-.45l-1,3.58a1.67,1.67,0,0,1-.17.56,10.62,10.62,0,0,1-.8.83c-.26-.29-.65-.53-.77-.87-.39-1.08-.67-2.2-1-3.3a2,2,0,0,0-.43-.84l-.72,3.9c0,.11,0,.26-.05.33-.22.24-.46.46-.7.69-.16-.28-.46-.57-.44-.84a22.17,22.17,0,0,1,.37-2.32c.22-1.24.4-2.49.7-3.72a1.53,1.53,0,0,1,.76-1c.57-.16.74.42.88.9.44,1.5.89,3,1.34,4.51Z"/><path class="cls-6" d="M66.87,72.82c0-1.66,0-3.11,0-4.57,0-.45,0-1,.59-.89.23,0,.56.58.57.9.06,2,.07,3.93,0,5.89a3.24,3.24,0,0,1-.44,1.06c-.33-.19-.78-.31-1-.59-1.08-1.48-2.11-3-3.34-4.48q0,1.86,0,3.73a2,2,0,0,1,0,.75,3.56,3.56,0,0,1-.55.73c-.2-.25-.58-.5-.58-.75,0-2.16,0-4.32,0-6.48,0-.25.24-.71.39-.71a1.09,1.09,0,0,1,.8.4c1.08,1.5,2.12,3,3.17,4.55C66.57,72.46,66.66,72.56,66.87,72.82Z"/><path class="cls-7" d="M70.3,70.37a18.89,18.89,0,0,1,0-2.18c0-.31.37-.58.56-.87.2.28.56.56.57.85.06,1.34,0,2.69,0,4a1.81,1.81,0,1,0,3.61,0c0-1.35,0-2.69,0-4,0-.29.37-.57.56-.86.2.29.56.57.57.87.06,1.48.07,3,0,4.46a3,3,0,0,1-6,0c0-.75,0-1.51,0-2.27Z"/><path class="cls-8" d="M57.1,72v2.21a14.27,14.27,0,0,1,1.9,0c.31,0,.8.31.84.54.08.56-.41.62-.86.62-.73,0-1.46,0-2.19,0s-.93-.23-.93-.89q0-3.11,0-6.23c0-.59.23-.9.83-.9a23.08,23.08,0,0,1,2.35,0c.29,0,.55.39.83.6-.29.19-.57.5-.88.55a13.33,13.33,0,0,1-1.89,0v2.23a12.05,12.05,0,0,1,1.79,0c.27,0,.51.37.76.56-.26.2-.49.53-.77.57A11.67,11.67,0,0,1,57.1,72Z"/><path class="cls-9" d="M87.13,81c-.3.21-.51.47-.65.44s-.36-.31-.54-.48c.19-.16.36-.42.57-.46S86.85,80.73,87.13,81Z"/><path class="cls-10" d="M83.77,80.88c-.3.26-.48.55-.63.53s-.39-.28-.58-.43c.14-.18.27-.49.43-.5S83.41,80.68,83.77,80.88Z"/><path class="cls-11" d="M83.78,40.26c-.34.25-.53.49-.73.5s-.32-.29-.48-.45c.17-.17.32-.43.52-.49S83.45,40,83.78,40.26Z"/><path class="cls-12" d="M86.48,78.27c-.24-.34-.49-.53-.5-.73s.33-.47.44-.44a.79.79,0,0,1,.49.49C86.95,77.72,86.7,77.94,86.48,78.27Z"/><path class="cls-13" d="M83.78,77.54c-.34.24-.54.48-.74.48s-.32-.29-.48-.45c.17-.17.32-.44.53-.49S83.45,77.31,83.78,77.54Z"/><path class="cls-14" d="M83.08,44.41c-.25-.37-.48-.57-.48-.77a.47.47,0,0,1,.93,0C83.54,43.82,83.31,44,83.08,44.41Z"/><path class="cls-15" d="M87.13,43.65c-.28.24-.48.52-.62.5s-.38-.29-.57-.46c.18-.17.33-.43.54-.48S86.83,43.43,87.13,43.65Z"/><path class="cls-16" d="M83.77,74.22c-.35.21-.57.43-.77.42s-.29-.32-.44-.5c.19-.16.37-.4.57-.43S83.47,74,83.77,74.22Z"/><path class="cls-17" d="M83.11,46.32c.21.39.43.61.41.81a.63.63,0,0,1-.49.39c-.17,0-.45-.3-.44-.45S82.85,46.68,83.11,46.32Z"/><path class="cls-18" d="M87.13,47c-.28.24-.48.52-.62.49s-.38-.29-.57-.45c.18-.17.33-.43.54-.49S86.83,46.82,87.13,47Z"/><path class="cls-19" d="M84.88,31c.2.39.41.61.4.81a.62.62,0,0,1-.49.38c-.17,0-.44-.3-.43-.45S84.62,31.36,84.88,31Z"/><path class="cls-20" d="M83.11,85c-.25-.28-.54-.46-.52-.6s.28-.39.44-.58c.18.17.44.32.5.53S83.32,84.71,83.11,85Z"/><path class="cls-21" d="M84.85,83.31c-.25-.36-.49-.55-.5-.76s.28-.43.45-.44.48.25.48.4S85.07,82.94,84.85,83.31Z"/><path class="cls-22" d="M84.79,49.4c-.21-.34-.44-.55-.44-.76s.36-.44.47-.4a.78.78,0,0,1,.45.52C85.3,48.9,85,49.1,84.79,49.4Z"/><path class="cls-23" d="M88.24,49.4c-.24-.3-.51-.5-.49-.65a.78.78,0,0,1,.46-.52c.11,0,.47.26.47.41S88.45,49.06,88.24,49.4Z"/><path class="cls-24" d="M83.07,49.71c.23.37.46.57.46.78s-.3.42-.47.41-.47-.27-.47-.42S82.83,50.08,83.07,49.71Z"/><path class="cls-25" d="M84.81,66.3c-.22-.29-.49-.5-.46-.64s.31-.37.48-.55c.16.19.41.36.45.57S85,66,84.81,66.3Z"/><path class="cls-26" d="M88.91,65.57c-.29.25-.47.53-.62.51a.78.78,0,0,1-.53-.44c0-.11.24-.48.39-.49S88.56,65.37,88.91,65.57Z"/><path class="cls-27" d="M88.9,75.78c-.31.25-.49.5-.7.52s-.47-.31-.45-.43a.77.77,0,0,1,.47-.51C88.36,75.31,88.58,75.56,88.9,75.78Z"/><path class="cls-28" d="M84.78,78.52c.24.27.52.45.5.59s-.27.39-.42.59c-.18-.17-.44-.32-.5-.52S84.57,78.82,84.78,78.52Z"/><path class="cls-29" d="M85.52,35.13c-.31.23-.52.49-.66.46a.79.79,0,0,1-.5-.48c0-.12.28-.46.43-.45S85.19,34.9,85.52,35.13Z"/><path class="cls-30" d="M88.23,34.43c.22.33.45.54.45.75s-.35.45-.46.42a.78.78,0,0,1-.46-.51C87.73,34.93,88,34.73,88.23,34.43Z"/><path class="cls-31" d="M83,37.63c-.21-.38-.43-.6-.42-.8s.33-.39.5-.38.45.3.44.44S83.27,37.28,83,37.63Z"/><path class="cls-32" d="M87.13,36.9c-.3.23-.51.5-.64.47s-.37-.31-.55-.48c.18-.16.35-.41.56-.45S86.84,36.68,87.13,36.9Z"/><path class="cls-33" d="M88.9,79.14c-.31.25-.49.5-.69.52s-.48-.3-.45-.43a.77.77,0,0,1,.46-.51C88.36,78.69,88.58,78.94,88.9,79.14Z"/><path class="cls-34" d="M85.51,85.93c-.31.24-.5.5-.7.51s-.48-.32-.45-.43a.79.79,0,0,1,.48-.51C85,85.46,85.19,85.72,85.51,85.93Z"/><path class="cls-35" d="M86.4,85c-.21-.31-.46-.53-.42-.66s.33-.35.51-.52c.15.19.39.38.42.59S86.65,84.73,86.4,85Z"/><path class="cls-36" d="M84.87,100.19c-.25-.28-.53-.47-.51-.6s.28-.39.43-.59c.17.17.44.32.49.52S85.07,99.89,84.87,100.19Z"/><path class="cls-37" d="M84.13,45.27c.32-.21.54-.46.68-.43a.77.77,0,0,1,.47.51c0,.12-.3.45-.45.43S84.44,45.51,84.13,45.27Z"/><path class="cls-38" d="M88.2,44.64c.23.28.51.48.48.61s-.3.38-.46.57c-.17-.18-.42-.34-.47-.55S88,44.92,88.2,44.64Z"/><path class="cls-39" d="M86.43,41c-.22-.35-.45-.55-.45-.76s.36-.44.47-.41a.78.78,0,0,1,.46.51C86.94,40.49,86.67,40.68,86.43,41Z"/><path class="cls-40" d="M86.44,49.74c.23.31.5.52.47.66a.77.77,0,0,1-.47.5c-.12,0-.47-.27-.46-.42S86.22,50.08,86.44,49.74Z"/><path class="cls-41" d="M85.51,52.1c-.33.22-.54.45-.74.45s-.46-.35-.42-.47a.8.8,0,0,1,.52-.47C85,51.59,85.21,51.86,85.51,52.1Z"/><path class="cls-42" d="M88.2,98.79c.23.37.46.57.47.78s-.3.42-.47.42-.47-.27-.47-.42S88,99.16,88.2,98.79Z"/><path class="cls-43" d="M85.49,102.88c-.27.23-.46.5-.61.48s-.38-.28-.56-.44c.17-.18.32-.44.53-.5S85.2,102.66,85.49,102.88Z"/><path class="cls-44" d="M86.49,73.46c.22.34.47.56.43.69s-.32.35-.49.52c-.16-.17-.44-.34-.44-.5S86.24,73.79,86.49,73.46Z"/><path class="cls-45" d="M84.82,69.69c-.22-.28-.5-.49-.47-.63s.31-.37.47-.56c.16.19.42.35.46.56S85,69.41,84.82,69.69Z"/><path class="cls-46" d="M88.28,68.31c.2.36.41.58.4.78s-.38.43-.48.38a.78.78,0,0,1-.43-.54C87.74,68.78,88,68.6,88.28,68.31Z"/><path class="cls-47" d="M88.18,41.23c.24.33.49.51.5.71s-.28.33-.43.5c-.18-.17-.44-.31-.5-.52S88,41.56,88.18,41.23Z"/><path class="cls-48" d="M87.16,33.51c-.34.23-.55.48-.74.47s-.31-.3-.47-.46c.18-.16.34-.42.54-.46S86.84,33.27,87.16,33.51Z"/><path class="cls-49" d="M85.49,38.52c-.28.22-.47.49-.62.47s-.38-.29-.56-.46c.18-.17.34-.43.55-.48S85.21,38.29,85.49,38.52Z"/><path class="cls-50" d="M88.19,39.22c-.22-.32-.48-.54-.45-.68s.32-.35.5-.52c.16.16.45.33.44.49S88.43,38.9,88.19,39.22Z"/><path class="cls-51" d="M84.78,42.61c-.2-.34-.43-.55-.42-.76s.31-.3.48-.44c.16.19.41.36.44.56S85,42.31,84.78,42.61Z"/><path class="cls-52" d="M84.83,75.13c.22.28.49.48.46.63s-.3.37-.47.55c-.17-.18-.42-.35-.46-.56S84.6,75.41,84.83,75.13Z"/><path class="cls-53" d="M88.9,52.06c-.32.23-.51.47-.71.49s-.46-.32-.43-.44a.77.77,0,0,1,.48-.49C88.38,51.59,88.59,51.84,88.9,52.06Z"/><path class="cls-54" d="M83.11,53.1c.21.38.43.6.42.8s-.33.39-.49.38-.45-.3-.44-.44S82.85,53.45,83.11,53.1Z"/><path class="cls-55" d="M88.9,86c-.33.21-.54.44-.74.44s-.44-.35-.4-.47a.77.77,0,0,1,.51-.46C88.41,85.48,88.61,85.75,88.9,86Z"/><path class="cls-56" d="M88.18,58.13c.25.36.49.56.49.76s-.28.43-.45.44a.63.63,0,0,1-.48-.41C87.74,58.72,88,58.5,88.18,58.13Z"/><path class="cls-57" d="M83,87c.24.36.48.55.49.76s-.29.42-.45.43-.48-.25-.48-.4S82.82,87.36,83,87Z"/><path class="cls-58" d="M86.42,87c.24.3.52.49.49.64a.77.77,0,0,1-.45.52c-.12,0-.48-.25-.48-.4S86.21,87.36,86.42,87Z"/><path class="cls-59" d="M87.13,91.08c-.28.24-.47.51-.62.48s-.38-.28-.57-.44c.18-.17.33-.44.53-.49S86.83,90.86,87.13,91.08Z"/><path class="cls-60" d="M86.44,61.3c-.22-.33-.46-.53-.46-.73s.34-.46.46-.43a.79.79,0,0,1,.48.5C86.94,60.79,86.68,61,86.44,61.3Z"/><path class="cls-61" d="M86.52,68.12c-.27-.34-.52-.52-.54-.73s.26-.44.43-.45a.62.62,0,0,1,.5.37C86.92,67.52,86.72,67.74,86.52,68.12Z"/><path class="cls-62" d="M86.45,54.5c-.23-.28-.51-.49-.48-.62s.31-.37.47-.56c.16.18.42.35.46.55S86.68,54.22,86.45,54.5Z"/><path class="cls-63" d="M83.78,70.75c-.34.25-.53.49-.74.5s-.32-.29-.48-.45c.17-.17.32-.43.52-.48S83.45,70.53,83.78,70.75Z"/><path class="cls-64" d="M87.14,94.53c-.3.21-.52.46-.66.43s-.36-.31-.53-.48c.19-.16.37-.41.58-.44S86.85,94.29,87.14,94.53Z"/><path class="cls-65" d="M86.4,56.53c.25.29.53.47.51.62a.77.77,0,0,1-.44.53c-.12,0-.48-.24-.48-.39S86.2,56.87,86.4,56.53Z"/><path class="cls-66" d="M88.9,82.65c-.34.2-.55.43-.76.42s-.43-.37-.39-.49a.78.78,0,0,1,.53-.44C88.42,82.11,88.61,82.39,88.9,82.65Z"/><path class="cls-67" d="M85.52,72.4c-.31.23-.52.5-.66.47s-.36-.31-.54-.48c.16-.16.32-.46.48-.46S85.19,72.18,85.52,72.4Z"/><path class="cls-68" d="M86.49,100.58c.21.33.46.55.42.69s-.32.34-.5.51c-.15-.17-.44-.34-.43-.5S86.24,100.9,86.49,100.58Z"/><path class="cls-69" d="M88.95,72.45c-.38.21-.6.43-.8.42a.62.62,0,0,1-.4-.48c0-.17.29-.46.44-.45S88.59,72.19,88.95,72.45Z"/><path class="cls-70" d="M86.39,71.48c-.2-.35-.42-.57-.41-.77s.38-.42.49-.38a.77.77,0,0,1,.44.54C86.93,71,86.65,71.19,86.39,71.48Z"/><path class="cls-71" d="M88.94,62.29c-.38.21-.59.42-.79.41a.62.62,0,0,1-.39-.49c0-.17.29-.46.44-.44S88.59,62,88.94,62.29Z"/><path class="cls-72" d="M83,32.84c.23.28.51.47.48.61s-.3.38-.46.56c-.17-.18-.43-.34-.48-.54S82.83,33.13,83,32.84Z"/><path class="cls-73" d="M87.16,64c-.35.22-.56.46-.75.45s-.31-.3-.46-.47c.18-.16.35-.41.55-.46S86.84,63.78,87.16,64Z"/><path class="cls-74" d="M85.48,62.23c-.27.23-.46.5-.6.48s-.37-.29-.56-.45c.18-.17.33-.43.53-.49S85.2,62,85.48,62.23Z"/><path class="cls-75" d="M83,66.73c.23.28.51.47.48.61s-.3.38-.46.56c-.17-.18-.43-.34-.48-.54S82.83,67,83,66.73Z"/><path class="cls-76" d="M83.78,60.62c-.33.23-.54.49-.68.45s-.36-.3-.54-.47c.16-.16.31-.45.47-.45S83.43,60.38,83.78,60.62Z"/><path class="cls-77" d="M84.77,59.56c-.21-.36-.43-.57-.42-.77s.31-.29.49-.44c.15.19.4.36.43.57S85,59.26,84.77,59.56Z"/><path class="cls-78" d="M83.77,57.19c-.31.25-.5.51-.65.49s-.38-.28-.56-.44c.15-.17.29-.48.45-.48S83.42,57,83.77,57.19Z"/><path class="cls-79" d="M88.24,56.18c-.24-.31-.51-.51-.49-.65s.28-.37.44-.56c.17.15.48.29.48.44S88.46,55.83,88.24,56.18Z"/><path class="cls-80" d="M84.76,54.76c.26.3.53.49.51.63s-.27.39-.43.58c-.17-.14-.48-.28-.49-.44S84.56,55.12,84.76,54.76Z"/><path class="cls-81" d="M83.78,94.48c-.32.24-.53.5-.67.47s-.37-.3-.55-.46c.15-.17.3-.46.46-.46S83.43,94.26,83.78,94.48Z"/><path class="cls-82" d="M84.87,90.09c-.26-.36-.5-.55-.51-.75s.27-.44.43-.45a.62.62,0,0,1,.48.39C85.29,89.48,85.08,89.7,84.87,90.09Z"/><path class="cls-83" d="M84.79,96.81c-.21-.31-.47-.52-.44-.66s.32-.36.49-.53c.16.19.4.36.44.57S85,96.52,84.79,96.81Z"/><path class="cls-84" d="M88.16,95.39c.26.35.5.54.52.75s-.27.44-.43.45a.62.62,0,0,1-.49-.39C87.74,96,88,95.77,88.16,95.39Z"/><path class="cls-85" d="M83,98.61c-.21-.38-.42-.6-.41-.8s.33-.39.5-.38.44.3.43.45S83.27,98.27,83,98.61Z"/><path class="cls-86" d="M87.16,98c-.36.2-.58.42-.78.4s-.29-.32-.43-.5c.19-.15.37-.39.58-.42S86.86,97.69,87.16,98Z"/><path class="cls-87" d="M83.78,64c-.36.21-.57.44-.77.43s-.3-.31-.44-.48c.19-.16.36-.4.56-.44S83.46,63.79,83.78,64Z"/><path class="cls-88" d="M88.23,90.07c-.24-.32-.5-.51-.48-.66s.29-.37.45-.55c.17.15.47.29.47.45S88.45,89.71,88.23,90.07Z"/><path class="cls-89" d="M83.06,102c-.24-.36-.46-.56-.47-.77s.3-.41.47-.41.47.27.47.41S83.3,101.64,83.06,102Z"/><path class="cls-90" d="M84.83,93.46c-.24-.35-.47-.55-.47-.75s.29-.31.45-.47c.17.18.42.33.47.53S85.06,93.13,84.83,93.46Z"/><path class="cls-91" d="M83.78,91.09c-.32.24-.52.5-.66.47s-.37-.29-.55-.45c.15-.17.3-.47.45-.47S83.43,90.87,83.78,91.09Z"/><path class="cls-92" d="M88.17,93.45c-.21-.34-.46-.56-.42-.7s.32-.34.49-.51c.15.16.44.34.43.49S88.42,93.12,88.17,93.45Z"/><path class="cls-93" d="M116.84,26.92a4.14,4.14,0,0,0-4.27-.88,63.38,63.38,0,0,0-18.51-14.9A59.81,59.81,0,0,0,72.81,4.35c-1.65-.2-3.31-.38-5-.57H61.15c-1.69.19-3.37.37-5.06.58A57.76,57.76,0,0,0,37.31,9.94c-18.88,9.4-30.63,24.79-35,46.18a40.67,40.67,0,0,0-.59,6.27,8.28,8.28,0,0,1-.18,1v6.69c.19,1.65.37,3.3.57,4.94a57.84,57.84,0,0,0,5.56,18.8A64.36,64.36,0,0,0,25.17,116a.86.86,0,0,0,1.14-.07l.62-.62a.78.78,0,0,0-.07-1.17,60.52,60.52,0,1,1,83.65-86.71,4.43,4.43,0,0,0-.91,3.75,4.5,4.5,0,0,0,8.85-1.65A4.33,4.33,0,0,0,116.84,26.92Z"/></svg>