<?xml version="1.0" encoding="utf-8"?>
<!-- Generator: Adobe Illustrator 24.0.0, SVG Export Plug-In . SVG Version: 6.00 Build 0)  -->
<svg version="1.1" id="Layer_1" xmlns="http://www.w3.org/2000/svg" xmlns:xlink="http://www.w3.org/1999/xlink" x="0px" y="0px"
	 viewBox="0 0 120 120" style="enable-background:new 0 0 120 120;" xml:space="preserve">
<style type="text/css">
	.st0{fill:url(#SVGID_1_);}
	.st1{fill:url(#SVGID_2_);}
	.st2{fill:none;stroke:url(#SVGID_3_);stroke-width:2;stroke-miterlimit:10;}
</style>
<title>nameCard</title>
<linearGradient id="SVGID_1_" gradientUnits="userSpaceOnUse" x1="21.9884" y1="54.75" x2="89.6116" y2="54.75" gradientTransform="matrix(1 0 0 -1 0 122)">
	<stop  offset="0" style="stop-color:#621EE6"/>
	<stop  offset="7.000000e-02" style="stop-color:#5A1CE8"/>
	<stop  offset="0.49" style="stop-color:#290DF4"/>
	<stop  offset="0.82" style="stop-color:#0B03FC"/>
	<stop  offset="1" style="stop-color:#0000FF"/>
</linearGradient>
<path class="st0" d="M55.8,91.9H30c-4.3,0.1-7.9-3.2-8-7.5c0-0.2,0-0.3,0-0.5c0-11,0-22.1,0-33.2c-0.2-4.3,3.1-8,7.4-8.2
	c0.3,0,0.6,0,0.8,0h51.3c4.3-0.2,7.9,3.1,8.1,7.4c0,0.2,0,0.5,0,0.7c0,11,0,22,0,33.1c0.2,4.3-3.1,8-7.4,8.2c-0.3,0-0.6,0-0.8,0
	L55.8,91.9z M41.5,79.1h6.3c1,0.1,1.9-0.5,2.3-1.3c0.9-1.4,0.4-3.3-1-4.1c0,0,0,0,0,0c-0.7-0.4-1.4-0.8-2.1-1.1
	c-0.9-0.4-1.8-0.8-2.7-1.2s-0.8-1.2-0.3-1.9c0.7-0.9,1.2-2,1.8-2.9c0.2-0.3,0.4-0.6,0.6-0.9c0.7-0.6,1.1-1.9,0.5-2.6
	c-0.4-0.6-0.6-1.3-0.4-1.9c0-0.5-0.1-0.9-0.1-1.4c-0.3-2.4-3.2-4.6-5.6-4c-3.3,0.8-4.5,2.2-4.5,5.1c0,0.4,0,0.8,0,1.1
	c0,0.2,0,0.4-0.2,0.6c-0.7,0.9-0.9,1.9-0.2,2.7c0.6,0.8,1.1,1.6,1.4,2.5c0.4,0.7,0.8,1.3,1.3,1.8c0.5,0.4,0.5,1.1,0.1,1.6
	c-0.1,0.1-0.2,0.2-0.3,0.3c-0.4,0.2-0.8,0.4-1.2,0.6c-1.2,0.6-2.5,1.1-3.7,1.8c-1.1,0.7-1.6,2.1-1.2,3.3c0.3,1.3,1.5,2.1,2.8,2
	L41.5,79.1z M68.8,68.5h9.1c1,0,1.3-0.3,1.3-1.3s-0.3-1.3-1.3-1.3H59.7c-0.9,0-1.3,0.4-1.3,1.3s0.4,1.3,1.3,1.3H68.8z M68.8,76.3
	h9.1c1,0,1.3-0.3,1.3-1.3s-0.3-1.3-1.3-1.3H59.7c-0.9,0-1.3,0.4-1.3,1.3s0.4,1.3,1.3,1.3H68.8z M68.8,60.7H78c0.9,0,1.2-0.4,1.2-1.3
	s-0.3-1.3-1.2-1.3H59.8c-1,0-1.4,0.3-1.4,1.3s0.4,1.3,1.4,1.3L68.8,60.7z"/>
<linearGradient id="SVGID_2_" gradientUnits="userSpaceOnUse" x1="32.4581" y1="65.2086" x2="100.0078" y2="65.2086" gradientTransform="matrix(1 0 0 -1 0 122)">
	<stop  offset="0" style="stop-color:#621EE6"/>
	<stop  offset="7.000000e-02" style="stop-color:#5A1CE8"/>
	<stop  offset="0.49" style="stop-color:#290DF4"/>
	<stop  offset="0.82" style="stop-color:#0B03FC"/>
	<stop  offset="1" style="stop-color:#0000FF"/>
</linearGradient>
<path class="st1" d="M92.2,81.5v-5.1c2-0.5,2.6-1.3,2.6-3.3c0-10.9,0-21.9,0-32.8c0.2-1.4-0.9-2.7-2.3-2.9c-0.2,0-0.4,0-0.6,0H40.6
	c-1.8,0-2.6,0.7-3.1,2.5h-5.1c-0.1-3.7,2.6-7,6.3-7.6c2.2-0.2,4.4-0.3,6.7-0.2c15.5,0,31,0,46.5,0c4.3-0.2,7.9,3.1,8.1,7.4
	c0,0.2,0,0.5,0,0.7c0,11.1,0,22.3,0,33.4c0.1,3.9-2.8,7.3-6.7,7.8C92.9,81.5,92.6,81.5,92.2,81.5z"/>
<linearGradient id="SVGID_3_" gradientUnits="userSpaceOnUse" x1="1.0955" y1="60" x2="118.9045" y2="60">
	<stop  offset="0.33" style="stop-color:#621EE6"/>
	<stop  offset="0.51" style="stop-color:#5F1DE7"/>
	<stop  offset="0.63" style="stop-color:#561AE9"/>
	<stop  offset="0.75" style="stop-color:#4615ED"/>
	<stop  offset="0.85" style="stop-color:#2F0EF3"/>
	<stop  offset="0.95" style="stop-color:#1206FA"/>
	<stop  offset="1" style="stop-color:#0000FF"/>
</linearGradient>
<circle class="st2" cx="60" cy="60" r="57.9"/>
</svg>
