<svg id="Layer_1" data-name="Layer 1" xmlns="http://www.w3.org/2000/svg" xmlns:xlink="http://www.w3.org/1999/xlink" viewBox="0 0 120 120">
    <defs>
        <linearGradient id="linear-gradient" x1="0.6" y1="59.89" x2="119.4" y2="59.89" gradientTransform="matrix(1, 0, 0, -1, 0, 119.89)" gradientUnits="userSpaceOnUse">
            <stop offset="0.33" stop-color="#621ee6" />
            <stop offset="0.51" stop-color="#5f1de7" />
            <stop offset="0.63" stop-color="#561ae9" />
            <stop offset="0.75" stop-color="#4615ed" />
            <stop offset="0.85" stop-color="#2f0ef3" />
            <stop offset="0.95" stop-color="#1206fa" />
            <stop offset="1" stop-color="blue" />
        </linearGradient>
        <linearGradient id="linear-gradient-2" x1="17.78" y1="65.89" x2="100.22" y2="65.89" gradientTransform="matrix(1, 0, 0, -1, 0, 119.89)" gradientUnits="userSpaceOnUse">
            <stop offset="0.37" stop-color="#621ee6" />
            <stop offset="0.48" stop-color="#5a1ce8" />
            <stop offset="0.64" stop-color="#4415ee" />
            <stop offset="0.85" stop-color="#200af7" />
            <stop offset="1" stop-color="blue" />
        </linearGradient>
    </defs>
    <title>TickerIcon</title>
    <circle cx="60" cy="60" r="57.9" fill="none" stroke-miterlimit="10" stroke-width="3" stroke="url(#linear-gradient)" />
    <path d="M95.43,84.32a37.65,37.65,0,0,1,0,5.6,7.49,7.49,0,0,1-7.72,6.33H25.84A7.51,7.51,0,0,1,18,89.48a41.69,41.69,0,0,1,0-5.2A9,9,0,0,0,24.86,81a8.67,8.67,0,0,0,2-5.68c0-4.72-3.12-7.79-9.08-8.9a43.74,43.74,0,0,1,.42-6,7.24,7.24,0,0,1,7.5-5.63A4.91,4.91,0,0,0,29.6,53Q45.26,37.25,61,21.56c.3-.3.55-.63,1-1.17l2.07,2.69,1.18-1.36-2.37-2c2.18-2.21,4-4.26,6.07-6.1A7.48,7.48,0,0,1,79,13.76c1.08,1,2.09,2,3.23,3.19a9,9,0,0,0-2.33,8,8.4,8.4,0,0,0,2.83,4.91,8.89,8.89,0,0,0,11.88-.08,39.4,39.4,0,0,1,3.93,3.68,7.44,7.44,0,0,1-.56,10c-3.35,3.4-6.75,6.76-10.12,10.13-.29.29-.57.6-1,1l1.73.15a7.54,7.54,0,0,1,6.91,7.46v4.31a8.93,8.93,0,0,0-6.82,3.36,8.65,8.65,0,0,0-2,5.7C86.82,80.23,90.12,83.55,95.43,84.32ZM49.9,60.48H31.44c-.57,0-1.36-.09-1.25.76,0,.32.79.56,1.23.82.09.05.25,0,.37,0h36A2.6,2.6,0,0,0,68.94,62a1.2,1.2,0,0,0,.55-.84c0-.19-.38-.52-.64-.61a3.67,3.67,0,0,0-1.12-.06Zm0,26.71H31.81a2.59,2.59,0,0,0-1,0c-.28.13-.64.46-.65.71s.34.61.61.75a2.45,2.45,0,0,0,1,0h36a2.61,2.61,0,0,0,1,0c.29-.13.68-.46.68-.72s-.36-.61-.65-.74a2.48,2.48,0,0,0-1,0ZM36.31,54.58a2.92,2.92,0,0,0,2.93-.76C45.93,47,52.67,40.36,59.39,33.64a3.45,3.45,0,0,0,.84-.92,1.33,1.33,0,0,0-.11-1.08c-.09-.14-.65,0-1,0s-.37.33-.55.5L37,53.77ZM56.59,70.23a2.21,2.21,0,0,0-2.94,1.07l-.06.15c-.51.95-1.19,1.81-1.79,2.71L51.53,74V70.17h-1.6V79.1h1.26l1.54-4,1.6,2.79c.84,1.46.86,1.48,2.68,1.05-.84-1.46-1.63-2.92-2.52-4.33a1.23,1.23,0,0,1,.1-1.6C55.28,72.13,55.9,71.2,56.59,70.23ZM68,46.66l-2.75,3-1.85-1.3L66.16,46l-1.38-1.47L62.56,47.2l-1.88-1.66,3.23-2.8-1-1-4.13,4,6.16,6.14,4-3.86ZM58.3,70.13v9h6v-1.7H59.92l.1-2h3.49V73.75H60.06V71.63h4.21v-1.5Zm-9.94,6c-.94-.13-1.68-.23-2.19.78-.16.32-1.07.5-1.53.37a1.62,1.62,0,0,1-.88-1.17,11.78,11.78,0,0,1,0-3.13,1.76,1.76,0,0,1,1-1.22,1.62,1.62,0,0,1,1.47.52c.55,1.07,1.32.83,2.27.7a12.31,12.31,0,0,0-.65-1.59,3,3,0,0,0-3-1.5c-1.24.1-2.51.57-2.67,1.87a21.13,21.13,0,0,0,0,5.68c.21,1.34,1.66,1.88,3.37,1.71,1.55-.14,2.46-1.06,2.82-3ZM64,53.07c-1.68-.45-3.35-.84-5-1.35a1.69,1.69,0,0,1-.92-1c-.3-1.14-.45-2.32-.66-3.53A2.19,2.19,0,0,0,56.09,50l0,.11a29.49,29.49,0,0,1,.67,3.26l-.2.12-2.79-2.92-1.29,1.16c1.65,1.89,3.07,3.82,5.94,2.77l.14-1a16.44,16.44,0,0,1,2.46.67A2,2,0,0,0,64,53.07ZM33.41,71.72v7.39h1.73V71.76l2.38-.12v-1.5H31v1.58Zm35.71,7.42V71.67h2.39V70.16h-6.6v1.59H67.4v7.39Zm3.75-34.62L67.3,39.44,69,37.62l-1-.92-4.73,4.66,1.33,1.26,1.5-2.33,5.13,5.26ZM38.51,70.11v9h1.62v-9ZM74.15,54.45l.08.28a5.6,5.6,0,0,0,2.09-.33,18.24,18.24,0,0,0,2.75-2.74c.19-.21,0-.72,0-1.09-.37,0-.89-.17-1.09,0C76.7,51.83,75.44,53.15,74.15,54.45ZM70.91,29.36l2.21,2.28.87-1-2.23-2.2Zm4.53,4.16,2,2.46,1-1-2.15-2.31Zm4.21,4.58,2.16,2.32,1.07-1-2.22-2.11Zm5.45,3.41-.91.82,2.05,2.47,1-1ZM89.48,46l-.88.69L90.67,49l1.09-.93Zm-20-19.61-1.95-2.53-1,1.09,2.25,2.14ZM78.7,60.93V64h1.4V61Zm1.44,6.23H78.71v3h1.43Zm0,18.62H78.73v3.08h1.39Zm0,9.26V92H78.68v3Zm-1.45-37.3h1.43V54.8H78.69Zm1.42,18.65V73.44H78.68v2.95Zm0,6.26v-3h-1.4v3Zm-27.4-28v-.26H50.08v.26Z" fill="url(#linear-gradient-2)" />
</svg>