<svg id="Layer_1" data-name="Layer 1" xmlns="http://www.w3.org/2000/svg" xmlns:xlink="http://www.w3.org/1999/xlink" viewBox="0 0 120 120"><defs><style>.cls-1{fill:url(#linear-gradient);}.cls-2{fill:url(#linear-gradient-2);}</style><linearGradient id="linear-gradient" x1="18.77" y1="60" x2="101.23" y2="60" gradientUnits="userSpaceOnUse"><stop offset="0.37" stop-color="#621ee6"/><stop offset="0.48" stop-color="#5a1ce8"/><stop offset="0.64" stop-color="#4415ee"/><stop offset="0.85" stop-color="#200af7"/><stop offset="1" stop-color="blue"/></linearGradient><linearGradient id="linear-gradient-2" x1="1.5" y1="60" x2="118.5" y2="60" gradientUnits="userSpaceOnUse"><stop offset="0.33" stop-color="#621ee6"/><stop offset="0.51" stop-color="#5f1de7"/><stop offset="0.63" stop-color="#561ae9"/><stop offset="0.75" stop-color="#4615ed"/><stop offset="0.85" stop-color="#2f0ef3"/><stop offset="0.95" stop-color="#1206fa"/><stop offset="1" stop-color="blue"/></linearGradient></defs><title>ticker</title><path class="cls-1" d="M96.42,90.31a37.65,37.65,0,0,1,0,5.6,7.49,7.49,0,0,1-7.72,6.33H26.83A7.51,7.51,0,0,1,19,95.47a41.69,41.69,0,0,1,0-5.2A9,9,0,0,0,25.85,87a8.67,8.67,0,0,0,2-5.68c0-4.72-3.12-7.79-9.08-8.9a43.74,43.74,0,0,1,.42-6,7.24,7.24,0,0,1,7.5-5.63A4.91,4.91,0,0,0,30.59,59Q46.25,43.24,62,27.55c.3-.3.55-.63,1-1.17l2.07,2.69,1.18-1.36-2.37-2c2.18-2.21,4-4.26,6.07-6.1a7.48,7.48,0,0,1,10.07.14c1.08,1,2.09,2.05,3.23,3.19a9,9,0,0,0-2.33,8,8.4,8.4,0,0,0,2.83,4.91,8.89,8.89,0,0,0,11.88-.08,39.4,39.4,0,0,1,3.93,3.68A7.44,7.44,0,0,1,99,49.4c-3.35,3.4-6.75,6.76-10.12,10.13-.29.29-.57.6-1,1l1.73.15a7.54,7.54,0,0,1,6.91,7.46c0,1.42,0,2.83,0,4.31a8.93,8.93,0,0,0-6.82,3.36,8.65,8.65,0,0,0-2,5.7C87.81,86.22,91.11,89.54,96.42,90.31ZM50.89,66.47H32.43c-.57,0-1.36-.09-1.25.76,0,.32.79.56,1.23.82.09.05.25,0,.37,0h36A2.6,2.6,0,0,0,69.93,68a1.2,1.2,0,0,0,.55-.84c0-.19-.38-.52-.64-.61a3.67,3.67,0,0,0-1.12-.06Zm0,26.71H32.8a2.59,2.59,0,0,0-1,0c-.28.13-.64.46-.65.71s.34.61.61.75a2.45,2.45,0,0,0,1,0h36a2.61,2.61,0,0,0,1,0c.29-.13.68-.46.68-.72s-.36-.61-.65-.74a2.48,2.48,0,0,0-1,0ZM37.3,60.57a2.92,2.92,0,0,0,2.93-.76C46.92,53,53.66,46.35,60.38,39.63c.3-.3.69-.56.84-.92a1.33,1.33,0,0,0-.11-1.08c-.09-.14-.65-.05-1,0s-.37.33-.55.5L38,59.76C37.79,60,37.59,60.23,37.3,60.57ZM57.58,76.22a2.21,2.21,0,0,0-3,1.22c-.51.95-1.19,1.81-1.79,2.71L52.52,80V76.16h-1.6v8.93h1.26l1.54-4,1.6,2.79c.84,1.46.86,1.48,2.68,1.05-.84-1.46-1.63-2.92-2.52-4.33A1.23,1.23,0,0,1,55.58,79C56.27,78.12,56.89,77.19,57.58,76.22ZM68.95,52.65l-2.75,3-1.85-1.3L67.15,52l-1.38-1.47-2.22,2.66-1.88-1.66,3.23-2.8-1-1-4.13,4,6.16,6.14,4-3.86ZM59.29,76.12v9h6V83.42H60.91l.1-2H64.5V79.74H61.05V77.62h4.21V76.12Zm-9.94,6c-.94-.13-1.68-.23-2.19.78-.16.32-1.07.5-1.53.37a1.62,1.62,0,0,1-.88-1.17,11.78,11.78,0,0,1,0-3.13,1.76,1.76,0,0,1,1-1.22,1.62,1.62,0,0,1,1.47.52c.55,1.07,1.32.83,2.27.7a12.31,12.31,0,0,0-.65-1.59,3,3,0,0,0-3-1.5c-1.24.1-2.51.57-2.67,1.87a21.13,21.13,0,0,0,0,5.68c.21,1.34,1.66,1.88,3.37,1.71C48.09,85,49,84.08,49.36,82.17ZM64.94,59.06c-1.68-.45-3.35-.84-5-1.35a1.69,1.69,0,0,1-.92-1c-.3-1.14-.45-2.32-.66-3.53a2.19,2.19,0,0,0-1.24,2.93,29.49,29.49,0,0,1,.67,3.26l-.2.12-2.79-2.92-1.29,1.16c1.65,1.89,3.07,3.82,5.94,2.77l.14-1a16.44,16.44,0,0,1,2.46.67C63.36,60.71,64.23,60.4,64.94,59.06ZM34.4,77.71v7.39h1.73V77.75l2.38-.12v-1.5H32v1.58Zm35.71,7.42V77.66H72.5V76.15H65.9v1.59h2.49v7.39Zm3.75-34.62-5.57-5.08L70,43.61l-1-.92-4.73,4.66,1.33,1.26,1.5-2.33,5.13,5.26ZM39.5,76.1v9h1.62v-9ZM75.14,60.44l.08.28c.71-.09,1.58,0,2.09-.33a18.24,18.24,0,0,0,2.75-2.74c.19-.21,0-.72,0-1.09-.37,0-.89-.17-1.09,0C77.69,57.82,76.43,59.14,75.14,60.44ZM71.9,35.35l2.21,2.28.87-1-2.23-2.2Zm4.53,4.16,2,2.46,1-1-2.15-2.31Zm4.21,4.58,2.16,2.32,1.07-1-2.22-2.11Zm5.45,3.41-.91.82,2.05,2.47,1-1.05ZM90.47,52l-.88.69L91.66,55l1.09-.93Zm-20-19.61-1.95-2.53-1,1.09,2.25,2.14Zm9.22,34.53V70h1.4V66.95Zm1.44,6.23H79.7v3h1.43Zm0,18.62H79.72v3.08h1.39Zm0,9.26v-3H79.67v3ZM79.68,63.73h1.43V60.79H79.68ZM81.1,82.38V79.43H79.67v2.95Zm0,6.26v-3h-1.4v3Zm-27.4-28v-.26H51.07v.26Z"/><path class="cls-2" d="M116.84,26.92a4.14,4.14,0,0,0-4.27-.88,63.38,63.38,0,0,0-18.51-14.9A59.81,59.81,0,0,0,72.81,4.35c-1.65-.2-3.31-.38-5-.57H61.15c-1.69.19-3.37.37-5.06.58A57.76,57.76,0,0,0,37.31,9.94c-18.88,9.4-30.63,24.79-35,46.18a40.67,40.67,0,0,0-.59,6.27,8.28,8.28,0,0,1-.18,1v6.69c.19,1.65.37,3.3.57,4.94a57.84,57.84,0,0,0,5.56,18.8A64.36,64.36,0,0,0,25.17,116a.86.86,0,0,0,1.14-.07l.62-.62a.78.78,0,0,0-.07-1.17,60.52,60.52,0,1,1,83.65-86.71,4.43,4.43,0,0,0-.91,3.75,4.5,4.5,0,0,0,8.85-1.65A4.33,4.33,0,0,0,116.84,26.92Z"/></svg>