<svg id="Layer_1" data-name="Layer 1" xmlns="http://www.w3.org/2000/svg" xmlns:xlink="http://www.w3.org/1999/xlink" viewBox="0 0 120 120"><defs><style>.cls-1{fill:url(#linear-gradient);}.cls-2{fill:url(#linear-gradient-2);}.cls-3{fill:url(#linear-gradient-3);}.cls-4{fill:url(#linear-gradient-4);}</style><linearGradient id="linear-gradient" x1="1.5" y1="60" x2="118.5" y2="60" gradientUnits="userSpaceOnUse"><stop offset="0.33" stop-color="#621ee6"/><stop offset="0.51" stop-color="#5f1de7"/><stop offset="0.63" stop-color="#561ae9"/><stop offset="0.75" stop-color="#4615ed"/><stop offset="0.85" stop-color="#2f0ef3"/><stop offset="0.95" stop-color="#1206fa"/><stop offset="1" stop-color="blue"/></linearGradient><linearGradient id="linear-gradient-2" x1="23.74" y1="45.45" x2="103.53" y2="45.45" xlink:href="#linear-gradient"/><linearGradient id="linear-gradient-3" x1="23.75" y1="68.28" x2="103.74" y2="68.28" xlink:href="#linear-gradient"/><linearGradient id="linear-gradient-4" x1="23.74" y1="85.97" x2="103.7" y2="85.97" xlink:href="#linear-gradient"/></defs><title>ToRoi</title><path class="cls-1" d="M116.84,26.92a4.14,4.14,0,0,0-4.27-.88,63.38,63.38,0,0,0-18.51-14.9A59.81,59.81,0,0,0,72.81,4.35c-1.65-.2-3.31-.38-5-.57H61.15c-1.69.19-3.37.37-5.06.58A57.76,57.76,0,0,0,37.31,9.94c-18.88,9.4-30.63,24.79-35,46.18a40.67,40.67,0,0,0-.59,6.27,8.28,8.28,0,0,1-.18,1v6.69c.19,1.65.37,3.3.57,4.94a57.84,57.84,0,0,0,5.56,18.8A64.36,64.36,0,0,0,25.17,116a.86.86,0,0,0,1.14-.07l.62-.62a.78.78,0,0,0-.07-1.17,60.52,60.52,0,1,1,83.65-86.71,4.43,4.43,0,0,0-.91,3.75,4.5,4.5,0,0,0,8.85-1.65A4.33,4.33,0,0,0,116.84,26.92Z"/><path class="cls-2" d="M63.76,62.15a14.77,14.77,0,0,1-1.68-.45L24.8,46.79a1,1,0,0,1-.25-.11L23.74,46a3.64,3.64,0,0,1,.78-.66c4.56-2,9.13-4,13.7-5.94q11.83-5.12,23.64-10.26a4.33,4.33,0,0,1,3.68,0q18.62,8.1,37.26,16.17c.22.1.54.15.63.32a1,1,0,0,1,0,.77c-.09.17-.41.23-.64.32L65.44,61.67A16.72,16.72,0,0,1,63.76,62.15Z"/><path class="cls-3" d="M63.71,79.8a14,14,0,0,1-1.58-.43q-18.78-7.5-37.54-15a4.14,4.14,0,0,1-.83-.61,4,4,0,0,1,.84-.7q7-3.1,14.12-6.13a2,2,0,0,1,1.36,0Q50.36,61,60.62,65.14a7.92,7.92,0,0,0,6.2,0c6.84-2.76,13.7-5.48,20.54-8.23a1.8,1.8,0,0,1,1.54,0c4.64,2,9.3,4,13.95,6.07a4.64,4.64,0,0,1,.89.68,4.25,4.25,0,0,1-.89.67q-18.76,7.53-37.54,15A12.64,12.64,0,0,1,63.71,79.8Z"/><path class="cls-4" d="M63.82,97.48a12.15,12.15,0,0,1-1.58-.39Q43.38,89.57,24.53,82a3.39,3.39,0,0,1-.79-.65,4.05,4.05,0,0,1,.81-.64q7.09-3.1,14.21-6.15a1.85,1.85,0,0,1,1.27,0q10.33,4.09,20.64,8.24a7.82,7.82,0,0,0,6.11,0c6.81-2.75,13.64-5.45,20.46-8.21a2.1,2.1,0,0,1,1.8,0c4.53,2,9.08,3.94,13.62,5.9a3,3,0,0,1,.58.27c.19.13.48.36.46.48a.91.91,0,0,1-.48.55c-1.14.5-2.3,1-3.46,1.41L65.68,96.92C65.06,97.16,64.41,97.3,63.82,97.48Z"/></svg>